<?xml version="1.0" standalone="no"?>
<!DOCTYPE svg PUBLIC "-//W3C//DTD SVG 20010904//EN"
 "http://www.w3.org/TR/2001/REC-SVG-20010904/DTD/svg10.dtd">
<svg version="1.0" xmlns="http://www.w3.org/2000/svg"
 width="700.000000pt" height="700.000000pt" viewBox="0 0 700.000000 700.000000"
 preserveAspectRatio="xMidYMid meet">
<metadata>
Created by potrace 1.11, written by Peter Selinger 2001-2013
</metadata>
<g transform="translate(0.000000,700.000000) scale(0.100000,-0.100000)"
fill="#000000" stroke="none">
<path d="M3448 6983 c-26 -31 -128 -219 -128 -236 0 -5 -9 -20 -20 -34 -11
-14 -20 -33 -20 -42 0 -8 -10 -39 -22 -68 -20 -49 -22 -51 -42 -37 -50 35 -98
5 -181 -113 -17 -24 -38 -43 -47 -43 -21 0 -58 -46 -65 -82 -3 -17 -12 -28
-22 -28 -26 0 -41 -21 -41 -56 0 -18 -5 -34 -11 -36 -6 -2 -13 -25 -16 -51 -4
-34 -27 -88 -80 -185 -41 -75 -85 -161 -98 -189 -21 -45 -32 -56 -72 -73 -181
-79 -361 -181 -500 -286 -40 -30 -74 -54 -76 -54 -2 0 -30 -25 -62 -55 -32
-29 -63 -51 -68 -48 -6 3 -7 2 -4 -4 4 -6 -10 -26 -31 -45 -164 -154 -345
-399 -458 -620 l-39 -78 -178 0 c-196 0 -222 -6 -253 -59 -9 -15 -33 -36 -53
-45 -36 -15 -68 -62 -66 -96 0 -8 -12 -23 -27 -32 -37 -23 -60 -61 -61 -100
l-1 -33 -154 1 c-132 1 -157 -2 -176 -17 -12 -9 -62 -27 -111 -38 -113 -27
-195 -52 -195 -60 0 -12 117 -52 190 -65 61 -10 87 -20 120 -45 34 -25 38 -26
194 -26 l158 0 12 -35 c6 -20 25 -44 46 -58 19 -13 34 -28 33 -33 -2 -4 2 -20
7 -34 11 -30 49 -27 -347 -26 l-273 0 0 -45 0 -44 -38 0 -38 0 1 -125 c1 -124
0 -125 -22 -125 -14 0 -23 -6 -23 -15 0 -9 9 -15 25 -15 14 0 25 -4 25 -8 0
-5 -20 -8 -45 -7 -33 2 -45 -1 -45 -11 0 -15 0 -15 50 -17 33 -2 35 -4 36 -37
2 -66 3 -67 29 -65 27 3 26 -5 -6 -40 -31 -35 -62 -116 -61 -162 1 -50 26
-107 54 -127 14 -10 17 -19 10 -37 -4 -13 -7 -30 -6 -36 1 -7 2 -22 3 -33 0
-12 14 -28 30 -37 15 -9 34 -32 40 -50 11 -28 17 -33 45 -33 26 0 41 9 69 39
60 66 58 53 81 441 2 22 7 25 44 28 35 3 42 0 42 -15 0 -10 2 -88 3 -173 l2
-155 85 -1 c47 -1 167 -2 267 -3 l181 -1 -1 -48 c-2 -57 21 -99 63 -115 26
-10 27 -13 15 -31 -23 -35 -27 -84 -9 -121 23 -50 65 -65 176 -65 l94 0 17
-36 c10 -20 51 -88 92 -152 197 -311 474 -582 789 -770 99 -60 107 -67 136
-123 46 -91 68 -115 142 -160 37 -23 68 -43 68 -46 0 -2 -4 -2 -9 2 -5 3 -13
0 -16 -6 -9 -14 30 -56 59 -63 21 -5 22 -12 24 -95 l3 -90 -28 4 c-15 1 -53 5
-83 9 -30 3 -82 9 -115 13 -108 12 -136 9 -193 -26 -66 -41 -79 -64 -57 -97 8
-13 22 -24 30 -24 8 0 21 -16 29 -35 17 -41 53 -58 108 -53 26 2 39 -1 43 -11
3 -8 2 -17 -3 -20 -8 -5 -9 -39 -3 -71 1 -4 18 -12 39 -19 20 -8 46 -20 57
-27 18 -13 17 -14 -13 -14 -32 0 -32 0 -17 -24 14 -21 45 -34 125 -51 8 -2 26
-8 40 -14 22 -10 22 -11 3 -7 -22 4 -22 3 -7 -26 9 -16 13 -32 11 -35 -3 -2
-22 0 -43 6 -22 5 -50 12 -64 15 -14 2 -47 9 -74 15 -54 13 -58 11 -62 -23 -4
-36 14 -54 76 -76 56 -20 57 -22 8 -22 -25 -1 -26 -2 -12 -23 11 -17 39 -30
99 -46 47 -13 85 -27 85 -30 0 -4 -9 -5 -20 -2 -17 5 -13 -8 27 -74 27 -44 51
-75 54 -69 4 6 9 29 12 51 4 33 15 49 61 90 31 28 56 53 56 57 0 4 -8 8 -17
10 -10 2 11 14 47 27 48 17 69 30 78 49 6 14 10 27 8 29 -2 2 -24 4 -50 5
l-47 1 33 22 33 22 55 -46 c30 -25 66 -56 80 -69 26 -22 32 -22 289 -24 156
-1 265 2 269 8 13 18 144 119 155 119 9 0 115 294 120 334 1 9 -7 15 -23 15
-28 1 -30 4 -30 46 l0 30 228 0 227 0 -3 150 c-2 82 0 150 5 151 4 1 24 2 43
3 41 3 120 43 171 89 47 41 113 143 130 201 9 30 21 48 38 56 32 14 118 71
211 139 339 246 626 615 794 1024 40 98 97 281 116 372 7 33 13 65 15 70 3 18
18 90 21 108 2 10 6 57 10 105 6 83 11 117 14 117 1 0 3 8 5 18 2 9 -1 17 -6
17 -6 0 -6 7 0 19 6 10 7 22 3 26 -4 5 0 6 9 3 9 -4 16 -1 16 7 0 7 -7 11 -15
7 -10 -3 -13 0 -10 9 3 8 11 13 18 11 10 -2 11 0 3 10 -6 7 -7 22 -3 33 4 11
4 33 0 50 -4 16 -6 42 -6 57 1 14 -2 24 -6 22 -9 -6 -21 38 -16 63 3 17 25 18
394 21 l391 3 1 -168 c0 -92 1 -187 1 -209 l1 -41 42 7 c24 5 45 7 49 5 8 -6
9 10 10 219 l1 188 117 -3 116 -4 3 57 c3 54 1 58 -22 64 -14 3 -68 4 -120 2
l-94 -3 0 177 c0 98 -3 186 -7 197 -7 23 -39 30 -81 19 -31 -8 -31 -9 -30 -65
1 -32 5 -64 10 -72 6 -10 6 -12 -3 -7 -14 9 -11 -30 3 -53 6 -8 5 -12 0 -8 -6
3 -10 -26 -10 -69 -1 -41 3 -74 8 -74 4 0 7 -12 6 -28 -2 -26 -4 -27 -58 -27
-31 1 -61 4 -67 8 -19 12 -197 6 -212 -6 -11 -9 -13 -9 -8 -1 10 17 -355 17
-365 1 -6 -9 -8 -9 -8 1 0 8 -15 12 -43 12 l-43 0 -22 118 c-22 123 -58 242
-98 328 -13 28 -24 54 -24 57 0 17 -82 188 -140 292 -146 263 -389 544 -614
711 -34 25 -69 52 -79 60 -9 8 -20 14 -23 14 -2 0 -14 8 -25 19 -11 10 -37 27
-57 37 -20 11 -39 22 -42 25 -3 4 -53 32 -111 63 l-105 56 -92 182 c-51 101
-107 210 -125 243 -151 273 -283 418 -353 386 -18 -8 -30 -7 -51 4 -15 8 -48
15 -73 15 l-45 0 -25 67 c-14 37 -26 71 -28 75 -2 4 15 12 37 18 32 8 41 16
46 40 9 42 0 61 -41 90 -20 13 -41 34 -46 45 -11 24 -96 85 -118 85 -8 0 -31
18 -51 40 -40 44 -76 52 -101 23z m-2336 -3350 c-3 -16 -7 -22 -10 -15 -4 13
4 42 11 42 2 0 2 -12 -1 -27z m-5 -135 c-3 -8 -6 -5 -6 6 -1 11 2 17 5 13 3
-3 4 -12 1 -19z m33 -261 c0 -2 -9 -3 -20 -3 -11 0 -20 6 -20 13 0 11 5 11 20
3 11 -6 20 -12 20 -13z m-26 -252 c-4 -8 -10 -15 -15 -15 -4 0 -6 7 -3 15 4 8
10 15 15 15 4 0 6 -7 3 -15z m6 -117 c0 -5 -4 -8 -10 -8 -5 0 -10 10 -10 23 0
18 2 19 10 7 5 -8 10 -18 10 -22z m1733 -1864 l37 1 0 -68 0 -68 -57 7 c-32 4
-63 7 -70 7 -15 0 -19 13 -17 52 1 17 2 47 3 67 l1 37 33 -18 c18 -11 49 -18
70 -17z m-83 -378 c0 -2 -7 -7 -16 -10 -8 -3 -12 -2 -9 4 6 10 25 14 25 6z
m128 -149 c-12 -4 -34 -5 -48 -2 -25 7 -25 7 10 25 32 17 36 18 48 2 11 -14 9
-18 -10 -25z"/>
<path d="M278 4594 c-16 -8 -28 -18 -28 -23 0 -5 -18 -11 -40 -15 -29 -4 -50
-17 -77 -47 -51 -55 -62 -77 -63 -123 0 -33 6 -45 39 -76 31 -29 38 -43 34
-63 -4 -19 2 -32 23 -52 16 -14 39 -35 52 -48 48 -46 88 -39 139 24 l32 39 -4
133 c-2 72 -4 156 -4 184 -1 48 -4 54 -31 68 -35 18 -38 18 -72 -1z"/>
<path d="M5913 3615 c0 -8 4 -12 9 -9 5 3 6 10 3 15 -9 13 -12 11 -12 -6z"/>
<path d="M5895 3380 c3 -5 8 -10 11 -10 2 0 4 5 4 10 0 6 -5 10 -11 10 -5 0
-7 -4 -4 -10z"/>
</g>
</svg>
