<svg xmlns="http://www.w3.org/2000/svg" width="93.766" height="170.691" viewBox="0 0 93.766 170.691"><g transform="translate(-188.486 -86.419)"><path d="M251.818,109.945c.369-.974.755-1.892,1.067-2.832,1.48-4.45,2.434-5.1,7.095-4.734a9.994,9.994,0,0,1,1.514.177,2.571,2.571,0,0,1,2.205,2.709,17.334,17.334,0,0,1-.433,3.2c-.264,1.308-.635,2.593-.939,3.893a1.194,1.194,0,0,0,.73,1.559c.7.266,1.081-.248,1.368-.739.513-.875.975-1.782,1.43-2.69,1.053-2.1,2.2-2.752,4.458-2.205a14.858,14.858,0,0,1,3.529,1.391,2.832,2.832,0,0,1,1.446,3.876,28.221,28.221,0,0,1-2.043,4.291c-.949,1.651-2.073,3.2-3.09,4.813a14.293,14.293,0,0,0-.956,1.829,1.675,1.675,0,0,1-2.265,1.118,4.135,4.135,0,0,1-.691-.317c-12.581-6.434-25.737-7.416-39.305-4.011A29.85,29.85,0,0,0,217,125.526a1.755,1.755,0,0,1-2.691-.778c-1.011-2.808-2.046-5.612-2.929-8.462a16.642,16.642,0,0,1-.752-4.3c-.094-2.79,1.907-4.332,4.655-3.792a2.716,2.716,0,0,1,1.971,1.642c.469.973.855,1.987,1.341,2.951a3.577,3.577,0,0,0,4.556,1.579,1.244,1.244,0,0,0,.573-.857,4.7,4.7,0,0,0-.184-1.5c-.252-1.051-.565-2.086-.825-3.136-.63-2.551-.093-3.6,2.344-4.632,3.542-1.5,4.486-1.145,6.077,2.322q.8,1.734,1.511,3.5a2.2,2.2,0,0,0,2.471,1.35,1.828,1.828,0,0,0,1.995-1.678c.3-1.231.421-2.5.654-3.751a33.563,33.563,0,0,1,.851-4.091,3.734,3.734,0,0,1,3.732-2.731c.952-.025,1.907.014,2.859.041a3.456,3.456,0,0,1,3.53,2.895c.329,1.354.52,2.743.755,4.119.1.563.154,1.133.213,1.7C249.818,108.984,250.33,109.689,251.818,109.945Zm-37.212.31c-1.609.694-1.4,1.725-1.1,2.71.677,2.251,1.4,4.487,2.132,6.721.211.649.545,2.228.78,2.811,17.164-8.173,34.054-7.571,51.068-.462,1.392-2.326,2.77-4.6,4.111-6.89a8.579,8.579,0,0,0,.742-1.751,1.2,1.2,0,0,0-.074-.9c-.716-1.14-3.562-1.109-4.318.036-.559.847-1.027,1.758-1.62,2.581a3.54,3.54,0,0,1-4.5,1.429,3.443,3.443,0,0,1-2.35-3.9c.164-1.571.589-3.115.865-4.676.148-.843.226-1.7.332-2.514-3.214-.763-4.437-.088-5.237,2.683-.264.914-.505,1.841-.849,2.725a3.071,3.071,0,0,1-2.008,1.9,4.684,4.684,0,0,1-5.839-2.931,12.741,12.741,0,0,1-.4-1.859c-.267-1.565-.519-3.133-.766-4.7a1.5,1.5,0,0,0-1.734-1.365c-1.488,0-2.288.456-2.613,1.951-.445,2.045-.672,4.136-1.053,6.2-.592,3.207-2.295,4.535-5.574,4.509-2.407-.018-4.172-.922-5.015-3.3-.318-.9-.7-1.771-1.076-2.648-.314-.741-.656-1.471-.963-2.157-2.146.4-2.406.717-2.109,2.49.232,1.378.56,2.74.767,4.122.332,2.208-.246,3.05-2.375,3.58-.615.153-1.242.272-1.87.365-3.439.5-4.886-.353-6.146-3.619C215.428,112.4,215.05,111.413,214.606,110.255Z" transform="translate(-5.568 -3.201)" fill="#002436"/><path d="M215.5,111.18c.444,1.158.822,2.148,1.2,3.136,1.26,3.267,2.707,4.124,6.146,3.619.628-.093,1.255-.211,1.87-.365,2.13-.53,2.707-1.372,2.375-3.58-.207-1.382-.535-2.744-.767-4.122-.3-1.773-.037-2.086,2.109-2.49.308.686.649,1.416.963,2.157.373.877.758,1.752,1.076,2.648.843,2.378,2.608,3.282,5.015,3.3,3.279.025,4.982-1.3,5.574-4.509.381-2.061.609-4.151,1.053-6.2.326-1.495,1.125-1.954,2.613-1.951a1.5,1.5,0,0,1,1.734,1.365c.247,1.568.5,3.136.766,4.7a12.741,12.741,0,0,0,.4,1.859,4.684,4.684,0,0,0,5.839,2.931,3.071,3.071,0,0,0,2.008-1.9c.344-.885.585-1.811.849-2.725.8-2.77,2.023-3.445,5.237-2.683-.106.816-.183,1.671-.332,2.514-.275,1.561-.7,3.1-.865,4.676a3.443,3.443,0,0,0,2.35,3.9,3.54,3.54,0,0,0,4.5-1.429c.593-.823,1.061-1.734,1.62-2.581.756-1.145,3.6-1.176,4.318-.036a1.2,1.2,0,0,1,.074.9,8.577,8.577,0,0,1-.742,1.751c-1.341,2.293-2.719,4.565-4.111,6.89-17.014-7.11-33.649-7.458-50.814.716-.234-.583-.823-2.416-1.034-3.065-.73-2.234-1.455-4.47-2.132-6.721C214.106,112.905,213.9,111.874,215.5,111.18Z" transform="translate(-6.465 -4.126)" fill="#f19860"/><path d="M281.969,160.794c-1-3.475-3.2-4.94-6.872-4.487a41.9,41.9,0,0,1-1.143-4.123,40.117,40.117,0,0,0-2.85-6.3,27.011,27.011,0,0,0-9.323-8.837c-1.436-.816-2.832-1.7-4.264-2.528a29.266,29.266,0,0,0-9.146-3.7,52.852,52.852,0,0,0-19.333-.018c-4.7.858-9.375,1.807-13.612,4.152-6.732,3.726-12.8,8.116-15.614,15.754a15.233,15.233,0,0,1-1.578,2.527l-.027-.046a29.48,29.48,0,0,0-1.624,4,4.617,4.617,0,0,1-.431,2.3,16.926,16.926,0,0,0-.692,2.965c-.749.148-1.433.26-2.106.421a6.01,6.01,0,0,0-4.868,6.185c0,3.574,1.756,6.353,5.432,7.394a6.172,6.172,0,0,1,4.451,4.243,23.5,23.5,0,0,0,6.38,9.149,4.335,4.335,0,0,0,.859.465,45.094,45.094,0,0,0-5.44,10.679c-5.056,14.229-5.115,28.517.5,42.507,4.4,10.961,12.528,18.5,23.683,22.623.19.07.387.14.579.209a.318.318,0,0,1,.4-.056,10.5,10.5,0,0,0,3.5,1.221,11.683,11.683,0,0,1,2.41.128.3.3,0,0,1,.163.09,35.019,35.019,0,0,0,11.155-.229c.055-.01.1-.01.153-.016a.311.311,0,0,1,.275-.164,10.971,10.971,0,0,0,5.516-1.8.307.307,0,0,1,.263-.039c.373-.188.7-.351,1.037-.5a33.621,33.621,0,0,0,13.464-10.67c6-8,10.7-16.69,12.954-26.53a38.391,38.391,0,0,0-4.833-29.857,44.986,44.986,0,0,0-3.423-4.576,13.679,13.679,0,0,0-5.709-4.237,14.114,14.114,0,0,1,.941-1.118,38.736,38.736,0,0,0,9.909-14.965,3.276,3.276,0,0,1,2.262-2.306,19.471,19.471,0,0,0,2.616-1.146A7.471,7.471,0,0,0,281.969,160.794Zm-87.388,13.283a7.462,7.462,0,0,1-2.941-4.517c-.448-2.483.72-3.91,3.478-4.132.317,3.136.621,6.139.955,9.432A9.23,9.23,0,0,1,194.581,174.077Zm57.842,84a3.054,3.054,0,0,1-1.668,1.706,28.876,28.876,0,0,1-15.781,3.588,30.256,30.256,0,0,0-3.618.043,8.613,8.613,0,0,1-6.2-1.969,14.546,14.546,0,0,0-2.224-1.463,39.424,39.424,0,0,1-18.437-21.763c-4.716-12.9-3.779-25.728.576-38.486.838-2.453,1.91-4.826,2.953-7.432.874.435,1.439.71,2,1a39.864,39.864,0,0,0,10.547,3.8,3.518,3.518,0,0,1,2.535,1.755c1.639,2.7,4.021,4.74,6.357,6.8a88.11,88.11,0,0,1,18.407,22.966,43.311,43.311,0,0,1,6.027,21.816A23.669,23.669,0,0,1,252.423,258.075Zm-24-59.375c.028-.133.056-.265.085-.4a75.145,75.145,0,0,0,18.9-1.989c-3.3,4.2-7.98,5.624-11.827,8.555Zm36.447-2.692c4.829,4.9,7.339,10.9,8.433,17.59a36.152,36.152,0,0,1-1.45,16.936,69.884,69.884,0,0,1-10.589,20.171,33.164,33.164,0,0,1-6.188,6.377l-.323-.237a4.339,4.339,0,0,1,.177-.7c2.783-6.358,2.55-12.846.924-19.422A51.993,51.993,0,0,0,248.2,220.2a109.478,109.478,0,0,0-9.734-12.226c-.418-.464-.808-.954-1.192-1.409.138-.2.19-.365.28-.389,6.316-1.651,11.058-5.533,14.921-10.61a7.906,7.906,0,0,1,3.013-2.525c1.436-.67,2.8-1.49,4.325-2.314a13.1,13.1,0,0,1,1.066.936C262.22,193.1,263.492,194.608,264.87,196.008Zm-6.839-8.916a40.279,40.279,0,0,1-17.545,5.939,56.954,56.954,0,0,1-16.343-.341,37.406,37.406,0,0,1-14.745-5.942c-4.017-2.788-6.392-6.856-8.071-11.325a26.757,26.757,0,0,1-1.869-11.6,38.209,38.209,0,0,1,2.982-11.982,25.406,25.406,0,0,1,7.2-9.46,39.733,39.733,0,0,1,21.475-9.019,55.477,55.477,0,0,1,11.613-.349c6.047-.357,12.047,2.8,17.773,6.628a24.424,24.424,0,0,1,10.932,17.54C273.268,169.841,265.1,182.65,258.031,187.092Zm20.7-24.247c-.155,2.392-1.657,3.966-3.8,5.474-.022-.646-.066-.978-.037-1.3.159-1.826.4-3.648.478-5.477a2.477,2.477,0,0,1,1.341-2.3A3.473,3.473,0,0,1,278.733,162.845Z" transform="translate(0 -10.939)" fill="#002436"/><path d="M253.772,86.419c1.3.04,2.347,5.372,2.33,6.553a2.171,2.171,0,0,1-2.255,2.052,2.367,2.367,0,0,1-2.315-2.264C251.522,91.564,252.483,86.38,253.772,86.419Z" transform="translate(-15.854 0)" fill="#fff6a3"/><path d="M285.2,106.883a1.988,1.988,0,0,1-1.881-2.219,1.865,1.865,0,0,1,2-1.718,2.135,2.135,0,0,1,1.91,2.246A1.88,1.88,0,0,1,285.2,106.883Z" transform="translate(-23.845 -4.155)" fill="#fff6a3"/><path d="M267.9,100.113a2.14,2.14,0,0,1-1.874-2.276,2.079,2.079,0,0,1,2.268-1.861,2.011,2.011,0,0,1,1.862,2.243A2.126,2.126,0,0,1,267.9,100.113Z" transform="translate(-19.497 -2.401)" fill="#fff6a3"/><path d="M240.505,96.369a1.934,1.934,0,0,1,1.764,2.062,1.912,1.912,0,0,1-2.1,1.71,2.011,2.011,0,0,1-1.725-2.294A1.771,1.771,0,0,1,240.505,96.369Z" transform="translate(-12.557 -2.499)" fill="#fff6a3"/><path d="M223.25,103.949a1.444,1.444,0,0,1-1.207,1.434c-.9.15-1.473-.518-1.533-1.453s.85-1.854,1.7-1.576A1.566,1.566,0,0,1,223.25,103.949Z" transform="translate(-8.052 -3.995)" fill="#fff6a3"/><path d="M246.387,134c6.047-.357,12.047,2.8,17.773,6.628a24.424,24.424,0,0,1,10.932,17.54c1.838,12.656-6.334,25.465-13.4,29.908a40.279,40.279,0,0,1-17.545,5.939,56.954,56.954,0,0,1-16.343-.341,37.411,37.411,0,0,1-14.745-5.942c-4.017-2.788-6.392-6.856-8.071-11.325a26.745,26.745,0,0,1-1.868-11.6,38.187,38.187,0,0,1,2.981-11.982,25.407,25.407,0,0,1,7.2-9.46,39.733,39.733,0,0,1,21.475-9.019A55.48,55.48,0,0,1,246.387,134Z" transform="translate(-3.662 -11.926)" fill="#fff"/><path d="M212.342,213.256c.874.435,1.439.71,2,1a39.863,39.863,0,0,0,10.547,3.8,3.517,3.517,0,0,1,2.535,1.756c1.638,2.7,4.021,4.739,6.357,6.8a88.11,88.11,0,0,1,18.407,22.966,43.31,43.31,0,0,1,6.027,21.816,23.668,23.668,0,0,1-1.469,7.637,3.054,3.054,0,0,1-1.668,1.706,28.876,28.876,0,0,1-15.781,3.588,30.256,30.256,0,0,0-3.618.043,8.613,8.613,0,0,1-6.2-1.969,14.545,14.545,0,0,0-2.224-1.463,39.424,39.424,0,0,1-18.437-21.763c-4.716-12.9-3.779-25.728.576-38.486C210.227,218.235,211.3,215.862,212.342,213.256Z" transform="translate(-4.323 -31.896)" fill="#fff063"/><path d="M271.145,277.274a4.337,4.337,0,0,1,.177-.7c2.783-6.358,2.55-12.846.924-19.422a51.993,51.993,0,0,0-7.652-16.525A109.48,109.48,0,0,0,254.86,228.4c-.418-.464-.808-.954-1.192-1.409.138-.2.19-.365.28-.389,6.316-1.651,11.058-5.533,14.921-10.61a7.906,7.906,0,0,1,3.013-2.525c1.436-.67,2.8-1.49,4.325-2.314a13.1,13.1,0,0,1,1.066.936c1.338,1.441,2.61,2.946,3.989,4.346,4.829,4.9,7.339,10.9,8.433,17.59a36.153,36.153,0,0,1-1.45,16.936,69.884,69.884,0,0,1-10.589,20.171,33.143,33.143,0,0,1-6.188,6.377Z" transform="translate(-16.391 -31.367)" fill="#fff063"/><path d="M249,227.175l-7.162-6.169c.028-.133.056-.265.085-.4a75.144,75.144,0,0,0,18.9-1.989C257.528,222.823,252.85,224.244,249,227.175Z" transform="translate(-13.417 -33.245)" fill="#fff063"/><path d="M196.147,177.359c.317,3.136.621,6.139.955,9.432a9.231,9.231,0,0,1-1.493-.784,7.461,7.461,0,0,1-2.941-4.517C192.221,179.008,193.389,177.581,196.147,177.359Z" transform="translate(-1.028 -22.869)" fill="#fff"/><path d="M305.742,169.084a3.473,3.473,0,0,1,2.018,3.61c-.155,2.392-1.657,3.966-3.8,5.474-.022-.646-.066-.978-.037-1.3.159-1.826.4-3.648.478-5.477A2.477,2.477,0,0,1,305.742,169.084Z" transform="translate(-29.027 -20.788)" fill="#fff"/><path d="M239.808,150.615a9.281,9.281,0,0,0,8.226-3.041c.755-.854,1.623-1.611,2.457-2.392a4.747,4.747,0,0,1,1.192-.924,1.149,1.149,0,0,1,1.029.118,1.058,1.058,0,0,1,.211,1c-1.731,2.623-2.911,5.7-5.967,7.246a12.792,12.792,0,0,1-8.884,1.064,3.384,3.384,0,0,1-1.415-.517,2.54,2.54,0,0,1-.978-1.45c-.055-.815.716-1.165,1.444-1.217A24.953,24.953,0,0,1,239.808,150.615Z" transform="translate(-11.867 -14.527)" fill="#002436"/><path d="M249.544,158.194c.382-.531.526-.965.8-1.082,3.219-1.354,5.149-4.2,7.589-6.461.3-.278.663-.492,1.27-.934a6.961,6.961,0,0,1-.153,1.312c-.3.829-.638,1.65-1.008,2.451-1.368,2.964-3.905,4.357-6.931,5.023A4.722,4.722,0,0,1,249.544,158.194Z" transform="translate(-15.354 -15.918)" fill="#002436"/><path d="M261.093,157.67a6.967,6.967,0,0,1,.418-1.187q1.7-2.633,3.436-5.24a4.072,4.072,0,0,1,.818-1.035,1.119,1.119,0,0,1,.977-.191,1.047,1.047,0,0,1,.231.956c-.451,1.383-.924,2.766-1.507,4.1a4.564,4.564,0,0,1-2.6,2.386A7.747,7.747,0,0,1,261.093,157.67Z" transform="translate(-18.259 -15.98)" fill="#002436"/><path d="M230.81,184.8a2.251,2.251,0,0,1,2.382,2.371,2.509,2.509,0,0,1-2.486,2.353,2.866,2.866,0,0,1-2.261-3.041A2.162,2.162,0,0,1,230.81,184.8Z" transform="translate(-10.046 -24.739)" fill="#002436"/><path d="M272.493,187.442a2.653,2.653,0,0,1-2.944,2.47,2.259,2.259,0,0,1-1.812-2.684c.156-1.258,1.124-2.415,2.3-2.246C271.1,185.137,272.632,186,272.493,187.442Z" transform="translate(-19.923 -24.782)" fill="#002436"/><path d="M254.356,193.579a5.052,5.052,0,0,1-4.183,3.529c-.259.052-.508.085-.752.112-.244-.026-.493-.059-.751-.112a5.052,5.052,0,0,1-4.183-3.529.911.911,0,0,0-1.781.241c.106,2.925,3.039,4.734,5.621,5.279a6.323,6.323,0,0,0,.994.116l0,.012c.033,0,.065,0,.1-.006s.065.005.1.006v-.012a6.322,6.322,0,0,0,.994-.116c2.582-.545,5.515-2.353,5.621-5.279A.911.911,0,0,0,254.356,193.579Z" transform="translate(-13.635 -26.785)" fill="#002436"/></g></svg>