<svg xmlns="http://www.w3.org/2000/svg" width="122.798" height="165.144" viewBox="0 0 122.798 165.144">
  <g id="Grupo_638" data-name="Grupo 638" transform="translate(-30.986 -45.637)">
    <path id="Caminho_32660" data-name="Caminho 32660" d="M153.784,181.859H52.555L30.986,197.318V63.677c0-7.48,5.363-18.04,22.318-18.04h100.48Z" fill="#3b2120"/>
    <path id="Caminho_32661" data-name="Caminho 32661" d="M53.251,180.559a11.965,11.965,0,0,1,1.648-1.252,6.763,6.763,0,0,1,1.394-6.354,8.651,8.651,0,0,1,.586-7.546c-.487-.62-.97-1.243-1.428-1.886a12.271,12.271,0,0,1-1.781-5.32,8.644,8.644,0,0,1,.068-2.319c-4.253-3.026-5.343-10.137.03-12.894,1.462-.751,3.539-1.522,4.719-2.7a5.4,5.4,0,0,1,.565-.76A37.706,37.706,0,0,1,55.73,135a9.445,9.445,0,0,1-.857-7.218,7.8,7.8,0,0,1-1.714-8.448c-1.838-2.825-2.822-6.009-.636-8.981.778-1.057,2.617-2.295,3.2-3.434,1.423-2.763-.9-3.984-2.647-6.554-2.439-3.586-.462-7.907,2.617-10.18a18.282,18.282,0,0,1-2.906-5.449c-1.108-3.847-.188-7.147.558-10.959a10.69,10.69,0,0,1,.362-1.505c-.061-.012-.156-.165-.274-.742a13.9,13.9,0,0,1,.053-5.839,6.814,6.814,0,0,1,2.282-3.832,24.885,24.885,0,0,1-.722-4.663c-.076-1.914.809-4.914.024-6.7a9.572,9.572,0,0,1-.806-4.86H53.3c-16.955,0-22.318,10.56-22.318,18.04V197.318l20.748-14.871A7.872,7.872,0,0,1,53.251,180.559Z" fill="#c09690" style="mix-blend-mode: multiply;isolation: isolate"/>
    <path id="Caminho_32662" data-name="Caminho 32662" d="M78.637,45.637c5.557,1.565,11.4,2.471,16.875,3.617,10.753,2.252,22.116,2.09,32.128,6.967,3.317,1.617,4.177,5.061,3.34,8.138a11.323,11.323,0,0,1,1.318,3.632c.6,3.388-1.266,6.247-1.065,9.407.145,2.27,4.1,4.428,4.1,7.722a11.007,11.007,0,0,1-.574,2.629,8.362,8.362,0,0,1,2.781,2.869c2.568,4.383.661,10.933-2.4,14.811.228.21.464.412.678.637a11.791,11.791,0,0,1,1.346,13.408c2.592,3.684,3.152,7.752,1.211,11.377a9.414,9.414,0,0,1,1.479,7.439,10.025,10.025,0,0,1-.388,1.282,7.458,7.458,0,0,1,1.655,11.673,26.407,26.407,0,0,1-3.907,3.441,7.534,7.534,0,0,1-1.579,8.028,16.574,16.574,0,0,1-1.663,1.527,7.546,7.546,0,0,1,1.22,4.241c0,6.886-7.783,10.845-13.745,11.734-8,1.193-16.047.736-24.064,1.643h56.4V45.637Z" fill="#98776e" opacity="0.3" style="mix-blend-mode: soft-light;isolation: isolate"/>
    <path id="Caminho_32663" data-name="Caminho 32663" d="M153.784,210.781H45.575c-18.949,0-19.946-28.922,0-28.922H153.784Z" fill="#241412"/>
    <path id="Caminho_32664" data-name="Caminho 32664" d="M153.784,185.854V206.8H50.083a16.32,16.32,0,0,1-9.544-2.662,10.653,10.653,0,0,1-2.977-3.052,9.922,9.922,0,0,1-1.243-2.978,8.594,8.594,0,0,1-.149-3.021,8.716,8.716,0,0,1,1.212-3.545,9.73,9.73,0,0,1,2.843-2.977c2.3-1.661,5.58-2.708,9.858-2.708Z" fill="#ffe6ca"/>
    <path id="Caminho_32665" data-name="Caminho 32665" d="M153.784,191.958l-65.449-1.683,65.449-1.683Z" fill="#cab7a2"/>
    <path id="Caminho_32666" data-name="Caminho 32666" d="M153.784,198l-30.668-1.683,30.668-1.683Z" fill="#cab7a2"/>
    <path id="Caminho_32667" data-name="Caminho 32667" d="M100.646,198.383l-30.668-.447,30.668-1.683,19.26,2Z" fill="#cab7a2"/>
    <path id="Caminho_32668" data-name="Caminho 32668" d="M153.784,204.6l-50.115-1.684,50.115-1.683Z" fill="#cab7a2"/>
    <path id="Caminho_32669" data-name="Caminho 32669" d="M98.6,202.639l-58.059,1.5a10.653,10.653,0,0,1-2.977-3.052Z" fill="#cab7a2"/>
    <path id="Caminho_32670" data-name="Caminho 32670" d="M63.816,196.6l-27.5,1.51a8.594,8.594,0,0,1-.149-3.021Z" fill="#cab7a2"/>
    <path id="Caminho_32671" data-name="Caminho 32671" d="M83.264,190l-45.882,1.541a9.73,9.73,0,0,1,2.843-2.977Z" fill="#cab7a2"/>
    <path id="Caminho_32672" data-name="Caminho 32672" d="M109.927,93.474h-.019a2.01,2.01,0,0,0-2.007-2.286c-1.119,0-.793,1.143-2.026,1.143-.017,0-.032,0-.049,0h-4.677v-4.4c0-1.09,1.141-.995,1.141-2.113a2.026,2.026,0,0,0-2.025-2.026,2.155,2.155,0,0,0-.313.026.206.206,0,0,0,0-.026,1.422,1.422,0,0,0-2.844,0l0,.019a2.01,2.01,0,0,0-2.286,2.007c0,1.118,1.143.794,1.143,2.026v4.485H91.388c-1.069-.014-.982-1.142-2.094-1.142a2.015,2.015,0,0,0-2,2.338c-.009,0-.018,0-.026,0a1.422,1.422,0,0,0,0,2.844l.018,0a2.016,2.016,0,0,0,2.007,2.285c1.119,0,.794-1.142,2.026-1.142h4.65v12.676c0,1.087-1.143.992-1.143,2.111a2.026,2.026,0,0,0,2.026,2.026,1.989,1.989,0,0,0,.312-.027c0,.009,0,.018,0,.027a1.422,1.422,0,0,0,2.844,0l0-.019a2.071,2.071,0,0,0,.262.019,2.025,2.025,0,0,0,2.025-2.026c0-1.118-1.141-.794-1.141-2.025V97.513h4.695c1.029.04.959,1.139,2.057,1.139a2.009,2.009,0,0,0,2-2.338c.009,0,.017,0,.027,0a1.422,1.422,0,0,0,0-2.843Zm-3.135,1.461v-.029l.02.014A.1.1,0,0,0,106.792,94.935Z" fill="#c09690" style="mix-blend-mode: multiply;isolation: isolate"/>
    <path id="Caminho_32673" data-name="Caminho 32673" d="M111.423,91.978H111.4a2.01,2.01,0,0,0-2.006-2.286c-1.12,0-.794,1.142-2.027,1.142-.017,0-.032,0-.049,0h-4.678v-4.4c0-1.089,1.142-.993,1.142-2.112a2.026,2.026,0,0,0-2.025-2.026,2.155,2.155,0,0,0-.313.026.206.206,0,0,0,0-.026,1.421,1.421,0,1,0-2.843,0v.019a2.01,2.01,0,0,0-2.286,2.007c0,1.119,1.143.794,1.143,2.026v4.484H92.884C91.815,90.825,91.9,89.7,90.79,89.7a2.015,2.015,0,0,0-2,2.338c-.009,0-.017,0-.026,0a1.422,1.422,0,0,0,0,2.844l.018,0a2.226,2.226,0,0,0-.018.26A2.025,2.025,0,0,0,90.79,97.16c1.119,0,.794-1.143,2.026-1.143h4.65v12.675c0,1.088-1.143.993-1.143,2.112a2.026,2.026,0,0,0,2.026,2.026,2,2,0,0,0,.312-.027c0,.009,0,.018,0,.027a1.422,1.422,0,0,0,2.844,0l0-.019a2.071,2.071,0,0,0,.262.019,2.025,2.025,0,0,0,2.025-2.026c0-1.118-1.142-.794-1.142-2.025V96.017h4.7c1.029.04.959,1.139,2.058,1.139a2.01,2.01,0,0,0,2-2.339c.009,0,.017,0,.027,0a1.422,1.422,0,0,0,0-2.843Zm-3.136,1.461V93.41l.021.014A.136.136,0,0,0,108.287,93.439Z" fill="#ffe6ca"/>
  </g>
</svg>
