<svg xmlns="http://www.w3.org/2000/svg" width="210.901" height="160.921" viewBox="0 0 210.901 160.921"><g transform="translate(-120.487 -140.712)"><path d="M5470.314,2173.471H5368.648l7.765,11.785s45.516,8.8,92.232,0c51.514,9.752,108.655,0,108.655,0l-.167-123.536-10.236-20.475-1.335,132.225Z" transform="translate(-5245.912 -1887.957)" fill="#34383c" opacity="0.15"/><path d="M5387.039,2350.233l191.231.593s-68.112-15.2-97.781-.879C5446.565,2334.421,5387.039,2350.233,5387.039,2350.233Z" transform="translate(-5261.517 -2068.726)" fill="#cbe6ee"/><path d="M5387.038,2049.389c31.928-15.646,97.315-.148,97.315-.148l.022,131.768s-68.947-15.095-97.338-.436Z" transform="translate(-5167.813 -1899.066)" fill="#fcfdfe" stroke="#707070" stroke-width="0.5"/><path d="M5480.839,2046.322c-10.007-19.368-69.925-2.952-93.8-1.246v132.43s65.456-15.37,93.8,0Z" transform="translate(-5261.517 -1896)" fill="#fcfdfe" stroke="#707070" stroke-width="0.5"/><text transform="translate(170 192)" fill="#424e58" font-size="30" font-family="Noteworthy-Light, Noteworthy" font-weight="300"><tspan x="-30.281" y="0">Biblia</tspan></text><path d="M0-5.581s15.775-4.973,30.92-5.082S60.58-6.017,60.58-6.017" transform="translate(236.423 171.183)" fill="none" stroke="#424e58" stroke-width="3"/><g transform="translate(246.447 172.216)"><rect width="8" height="65" rx="1" transform="translate(16.553 -0.216)" fill="#d9dadb"/><rect width="8.717" height="40.532" rx="1" transform="translate(40.532 13.434) rotate(90)" fill="#d9dadb"/></g><path d="M0-5.581s15.775-4.973,30.92-5.082S60.58-6.017,60.58-6.017" transform="translate(236.423 192.103)" fill="none" stroke="#424e58" stroke-width="3"/><path d="M0-5.581s15.775-4.973,30.92-5.082S60.58-6.017,60.58-6.017" transform="translate(236.423 212.587)" fill="none" stroke="#424e58" stroke-width="3"/><path d="M0-5.581s15.775-4.973,30.92-5.082S60.58-6.017,60.58-6.017" transform="translate(236.423 233.507)" fill="none" stroke="#424e58" stroke-width="3"/><path d="M0-5.581s15.775-4.973,30.92-5.082S60.58-6.017,60.58-6.017" transform="translate(143.592 233.071)" fill="none" stroke="#424e58" stroke-width="3"/><path d="M0-5.581s15.775-4.973,30.92-5.082S60.58-6.017,60.58-6.017" transform="translate(236.423 253.991)" fill="none" stroke="#424e58" stroke-width="3"/><path d="M0-5.581s15.775-4.973,30.92-5.082S60.58-6.017,60.58-6.017" transform="translate(143.592 253.119)" fill="none" stroke="#424e58" stroke-width="3"/><path d="M0-5.581s15.775-4.973,30.92-5.082S60.58-6.017,60.58-6.017" transform="translate(236.423 181.643)" fill="none" stroke="#424e58" stroke-width="3"/><path d="M0-5.581s15.775-4.973,30.92-5.082S60.58-6.017,60.58-6.017" transform="translate(236.423 202.563)" fill="none" stroke="#424e58" stroke-width="3"/><path d="M0-5.581s15.775-4.973,30.92-5.082S60.58-6.017,60.58-6.017" transform="translate(236.423 223.047)" fill="none" stroke="#424e58" stroke-width="3"/><path d="M0-5.581s15.775-4.973,30.92-5.082S60.58-6.017,60.58-6.017" transform="translate(143.592 222.611)" fill="none" stroke="#424e58" stroke-width="3"/><path d="M0-5.581s15.775-4.973,30.92-5.082S60.58-6.017,60.58-6.017" transform="translate(236.423 243.967)" fill="none" stroke="#424e58" stroke-width="3"/><path d="M0-5.581s15.775-4.973,30.92-5.082S60.58-6.017,60.58-6.017" transform="translate(143.592 243.531)" fill="none" stroke="#424e58" stroke-width="3"/><path d="M0-5.581s15.775-4.973,30.92-5.082S60.58-6.017,60.58-6.017" transform="translate(236.423 264.451)" fill="none" stroke="#424e58" stroke-width="3"/><path d="M0-5.581s15.775-4.973,30.92-5.082S60.58-6.017,60.58-6.017" transform="translate(143.592 263.579)" fill="none" stroke="#424e58" stroke-width="3"/><path d="M5474.322,2189.7l-94.05-.436V2057.8c-5.5-.153-4.75,3.6-4.75,3.6v130.406s-.632,3.443,4.75,2.786H5575.7c1.28.522.91-1.308.91-1.308l.025-133.124s-.831-2.609-5.087-2.158l.17,131.715Z" transform="translate(-5255 -1907.756)" fill="#34383c"/><path d="M0-2.516s1.969-2.759,1.945-1.7,0,73.967,0,73.967l-.516,17.6s2.023,38.283,2.77,41.539,5.317,9.8,5.317,9.8H8.56L6.2,135.949l1.785,2.739H6.931L4.91,135.949,6.2,138.687H5.265s-4.179-5.9-5.265-10.38C.37,124.509,0-2.516,0-2.516Z" transform="translate(219.208 152.646)" fill="#d56e6e"/></g></svg>