<svg xmlns="http://www.w3.org/2000/svg" width="69.856" height="182.385" viewBox="0 0 69.856 182.385"><g transform="translate(-289.964 -38.056)"><path d="M431.222,549.679l.151.148c.022.021-.012.055-.033.033l-.148-.151A.022.022,0,0,1,431.222,549.679Z" transform="translate(-104.887 -379.983)" fill="#432918"/><path d="M329.336,116.32q.3.885.6,1.774a79.994,79.994,0,0,1-9.363-5.967c-11.5-7.845-23.341-16.471-30.193-28.936-.1-.18-.419-.052-.338.143l.019.044h0l0,0c.233.553.483,1.1.745,1.637-.05-.079-.1-.16-.151-.239a.221.221,0,0,0-.381.223c3.557,6.644,8,13.525,14.2,18.008a.117.117,0,0,0-.033.059l-.158-.168c-.083-.089-.245.033-.17.131,3.786,4.932,8.638,9.087,13.358,13.09q7.684,6.516,15.53,12.846a.16.16,0,0,0,.085.034c.169.674.337,1.348.5,2.024-2.636-2.123-5.455-4.026-8.081-6.169s-5.2-4.383-7.671-6.713a161.589,161.589,0,0,1-14.077-15.265c-.13-.159-.408.057-.285.219l.131.17a.141.141,0,0,0-.118.217,79.693,79.693,0,0,0,13.157,15.982c5.481,4.928,11.525,9.305,17.44,13.694q.168.748.33,1.5c-11.691-8.978-23.871-18.383-31.262-31.424a.129.129,0,0,0-.234.1q.2.665.444,1.314a.105.105,0,0,0-.031.1c.756,3.672,2.943,7.184,5.194,10.116a53.059,53.059,0,0,0,7.775,8.1.138.138,0,0,0-.06.1,9.655,9.655,0,0,0,.355,4.7c-.986-1.247-1.934-2.534-2.831-3.872a.048.048,0,0,0-.026-.017c-.166-.362-.321-.726-.462-1.091a3.918,3.918,0,0,0-.166-.453c-.1-.275-.187-.55-.265-.826a.1.1,0,0,0-.194.054,28.492,28.492,0,0,0,3.449,9.613,26.732,26.732,0,0,0,5.874,6.651c2.3,1.94,4.79,3.635,7.242,5.374,2.345,1.663,5.047,3.369,6.861,5.684a12.917,12.917,0,0,0-2.647-1.985,53.651,53.651,0,0,0-5.256-2.681c-3.591-1.648-7.589-3.273-10.228-6.344-.125-.145-.343.012-.3.177.895,3.77,5.259,5.592,8.454,6.977.947.411,1.9.808,2.832,1.219-3.445-.984-7.1-1.7-9.655-3.967a.2.2,0,0,0-.309.238c.6,1.406,2.064,1.961,3.385,2.508q1.468.607,2.938,1.208a23.081,23.081,0,0,1-5.92-2.713.169.169,0,0,0-.252.145c0,.023.006.043.008.065a6.666,6.666,0,0,1-.978-2.993.148.148,0,0,0-.29-.039,4.2,4.2,0,0,0,.054,3.384,16.657,16.657,0,0,1-2.807-5.342c-.045-.14-.272-.161-.306,0a3.171,3.171,0,0,0,.074,1.893c.042.108.238.105.22-.03a6.92,6.92,0,0,1-.077-1.083,15.775,15.775,0,0,0,3.194,5.51,22.8,22.8,0,0,0,6.342,4.541,50.819,50.819,0,0,1,8.137,5.6A70.322,70.322,0,0,0,326.149,151c-4.624-2.74-9.447-5.9-11.623-11.034-.072-.168-.336-.075-.332.09a9.908,9.908,0,0,0,3.368,7.326c2.306,1.985,5.336,2.808,8,4.169a26.688,26.688,0,0,1,12.443,12.49q.022.817.035,1.635a24.738,24.738,0,0,0-7.829-10c-3.994-2.993-9.1-4.482-12.616-8.115-.112-.116-.273.031-.211.163,2.078,4.373,7.376,5.544,11.075,8.106a24.444,24.444,0,0,1,5.909,5.832,31.8,31.8,0,0,1,3.615,7.18.06.06,0,0,0,.073.039q-.017,3.178-.171,6.353l-4.611-5.616c-1.483-1.807-3.007-3.608-3.3-6.012-.014-.115-.186-.122-.185,0,.012,2.061,1.224,3.784,2.466,5.334q1.353,1.688,2.729,3.359c-1.228-1.245-2.444-2.5-3.6-3.812a16.13,16.13,0,0,1-4.107-7.592.039.039,0,0,0-.077.01,13.14,13.14,0,0,0,3.347,7.146c2.177,2.648,4.7,5.034,7.088,7.486a.165.165,0,0,0,.224.027c-.019.379-.039.758-.061,1.137a60.522,60.522,0,0,1-5.981-6.3,20.94,20.94,0,0,1-4.385-7.72c-.021-.083-.138-.046-.125.035.451,2.783,2.069,5.106,3.767,7.286a43.781,43.781,0,0,0,6.606,6.873.1.1,0,0,0,.105.018c-.022.36-.043.72-.068,1.08A51.851,51.851,0,0,1,325.216,160.7c-.031-.069-.136-.034-.144.028-.045-.13-.093-.259-.136-.39s-.258-.113-.244.033c.554,5.728,4.174,10.234,8.016,14.411a41.633,41.633,0,0,0-5.672-3.942.1.1,0,0,0-.147.064,35.294,35.294,0,0,1-2.729-4.847c-.047-.1-.194-.026-.172.073,1.469,6.311,5.719,11.035,10.844,14.793a.064.064,0,0,0,.063.008l.481.5a54.267,54.267,0,0,1-12.394-12.7.152.152,0,0,0-.263.153c2.7,6.087,7.866,11.026,13.3,14.813a18.339,18.339,0,0,1-4.986-3.195,36.572,36.572,0,0,0-5.41-3.625c-.116-.064-.252.1-.146.189a65.013,65.013,0,0,0,9.3,7.158,22.157,22.157,0,0,1-11.516-7.38c-.1-.128-.352.01-.286.166a13.173,13.173,0,0,0,5.548,6,40.424,40.424,0,0,0,4.444,2.273,14.939,14.939,0,0,0,3.823,1.322.1.1,0,0,0-.032,0c-4.729.8-10.286-3.26-14.627-.044-.151.112-.013.366.151.258,4.486-2.944,9.724.969,14.532-.009a.1.1,0,0,0,.033-.014l0,.02c-2.778.834-5.6,1.914-8.537,1.4-.169-.03-.244.216-.072.262,2.591.689,5.271-.18,7.768-1.089a14.845,14.845,0,0,0-1.815,2,21.761,21.761,0,0,0-3,6.575c-.046.16.2.272.273.115.691-1.556,1.241-3.169,2.031-4.681a19.983,19.983,0,0,1,3.038-4.077,10.374,10.374,0,0,0-2.025,4.73c-.031.2.266.292.311.086a14.757,14.757,0,0,1,1.938-4.689,145.873,145.873,0,0,1-6.161,25.9.1.1,0,0,0-.155.039,1.671,1.671,0,0,0-.173.5c-.005.006-.011.009-.016.016a5.942,5.942,0,0,0-.594,1.309c-.079.2.117.362.288.378a4.654,4.654,0,0,0,1.13-.034c.817.288,1.576-.317,2.148-.856a.122.122,0,0,0,.038-.081c.043-.032.088-.061.132-.094.124-.1-.037-.293-.165-.213a4.871,4.871,0,0,1-2.246.7.959.959,0,0,1-.3-.772c.011-.048.022-.1.029-.146a.282.282,0,0,0-.023-.167.14.14,0,0,0,.051-.065,120.2,120.2,0,0,0,6.565-26.953l.208-.075c.127-.046.077-.243-.057-.205l-.119.035q.437-3.413.714-6.838a147.125,147.125,0,0,0,.432-15.076.087.087,0,0,0,.03-.107c-.011-.029-.023-.058-.034-.087q-.062-2.666-.219-5.329c.052-.006.1-.067.066-.119l-.079-.109q-.341-5.709-1.1-11.386l.1.061a.2.2,0,0,0,.2-.347c-.125-.072-.25-.146-.375-.219-.03-.218-.062-.437-.093-.655a.109.109,0,0,0,.033-.2l-.067-.038a166.882,166.882,0,0,0-5.853-25.974l.005,0c.077.033.145-.074.068-.116l-.129-.07c-.111-.358-.226-.715-.339-1.072.283.107.523-.305.236-.433-.147-.066-.293-.135-.438-.2l-.054-.17c-3.256-10.039-7.6-19.647-11.882-29.278q-1.287-2.895-2.526-5.8a.079.079,0,0,0,0-.133l-.067-.033A222.973,222.973,0,0,1,307.366,59.6l.012,0c3.563,10.724,8.328,21.022,13.073,31.262q1.924,4.151,3.837,8.31c-.007.046-.015.091-.022.136a.084.084,0,0,0,.126.091c3.145,6.881,6.184,13.811,8.794,20.914q1.913,5.207,3.447,10.527l-.034.045a.112.112,0,0,0,.1.182,131.6,131.6,0,0,1,4.184,20.519q.117.978.22,1.958l-.02.027c-.013.018.008.038.026.033a134.1,134.1,0,0,1-.2,29.693c-.135,1.134-.289,2.262-.457,3.387a.084.084,0,0,0-.07.095.779.779,0,0,0,.035.149c0,.023-.006.047-.01.071l0,0a.076.076,0,0,0-.014.12,162.556,162.556,0,0,1-7.007,27.533c-.016.048.063.082.083.035a110.927,110.927,0,0,0,7.348-27.086c.019.029.037.058.054.086a12.161,12.161,0,0,1,.884,1.886,21.8,21.8,0,0,1,.911,3.638c.049.27.511.207.479-.065a14.274,14.274,0,0,0-1.048-4.107,8.214,8.214,0,0,0-1-1.753s-.094-.117-.2-.242c0-.025.008-.051.011-.076.088-.03.175-.055.263-.08a9.623,9.623,0,0,1,3.368,4.963c.619,1.932,1.385,4.33.682,6.309-.093.261.3.354.406.112.894-2.131-.007-4.869-.719-6.94a7.976,7.976,0,0,0-3.305-4.55,4.593,4.593,0,0,1,4.681,2,.183.183,0,0,0,.316-.185,4,4,0,0,0-3.647-2.351c.3-.113.6-.235.895-.368,3.3-.462,6.591,1.109,9.726,2.5.14.062.262-.129.123-.211-2.453-1.441-5.64-2.913-8.649-2.888a20.984,20.984,0,0,0,6.221-5.247c.089-.112-.058-.271-.161-.161a26.866,26.866,0,0,1-4.872,4.151A21.3,21.3,0,0,1,343.7,185.4a7.108,7.108,0,0,0-1.416.4,25.985,25.985,0,0,1,4.546-3.9.128.128,0,0,0-.129-.221,16.952,16.952,0,0,0-4.958,4.367c-.055.028-.109.059-.163.089a13.536,13.536,0,0,1,6-6.477c2.161-1.223,4.564-2.249,6-4.38.055-.081-.074-.18-.136-.1a13.066,13.066,0,0,1-4.06,3.071,22.922,22.922,0,0,0,3.149-2.765c.011-.011-.006-.028-.016-.017a22.016,22.016,0,0,1-4.379,3.446c-.513.271-1.024.547-1.525.841a26.419,26.419,0,0,1-3.741,1.538.061.061,0,0,0,.032.118,19.146,19.146,0,0,0,2.548-.9,11.887,11.887,0,0,0-4.347,5.879.17.17,0,0,0,0,.035c-.044.028-.088.053-.131.083q.435-3.1.738-6.193.111-1.135.2-2.272c3.436-1.2,6.239-3.429,8.956-5.772a25.3,25.3,0,0,1-8.906,6.625c-.144.064-.019.27.123.21a27.923,27.923,0,0,0,8.165-5.272,26.7,26.7,0,0,0,3.111-3.437,31.5,31.5,0,0,0,1.853-2.617c-.048.107-.093.215-.143.321a21.428,21.428,0,0,1-4.331,6.163,23.3,23.3,0,0,1-8.592,5.294.12.12,0,0,0-.044.2c-.092.021-.184.045-.277.064-.115.023-.089.217.028.2,2.485-.264,4.9-1.888,6.914-3.266a38.157,38.157,0,0,0,5.979-5.194c.143-.149.507-.723.253-.327-.157.245-.306.5-.469.737a20.9,20.9,0,0,1-1.459,1.905,21.524,21.524,0,0,1-2.759,2.664,33.835,33.835,0,0,1-6.874,4.156c-.117.056-.032.255.088.209a22.2,22.2,0,0,0,11.886-10.038c.043-.082-.069-.181-.134-.1A31.522,31.522,0,0,1,349.1,176.2l-.087.06a21.434,21.434,0,0,0,7.241-10.538c.035-.119-.153-.2-.2-.086a24.622,24.622,0,0,1-7.8,9.6,24.55,24.55,0,0,0,3.7-3.917h0l.019-.024c.087-.116-.094-.233-.19-.147a44.471,44.471,0,0,1-6.587,5.143c-.54.325-1.089.633-1.656.908a5.707,5.707,0,0,1-1.031.469c-.592.132-.052-.148.195-.368,1.1-.985,2.181-2,3.264-3,4.491-4.171,9.06-8.268,13.488-12.506.083-.08-.04-.2-.125-.125-5.98,5.147-11.812,10.577-17.4,16.152q.213-2.692.317-5.391a16.389,16.389,0,0,0,2.247-.96c-.755.581-1.5,1.179-2.208,1.81-.068.06.021.171.1.124,2.644-1.67,5.1-3.717,7.6-5.6.795-.6,1.584-1.195,2.336-1.828q-.715.618-1.421,1.243c-2.9,2.58-5.855,5.117-8.673,7.787-.107.1.05.25.159.159,2.972-2.5,5.828-5.149,8.72-7.74,2.375-2.127,4.677-4.392,7.113-6.466-1.54,1.655-3.1,3.29-4.638,4.946a.118.118,0,0,0-.028.049q-1.962,1.617-3.909,3.253a49.2,49.2,0,0,0-7.416,7.295c-.1.124.091.258.167.129,1.777-3.027,4.969-5.166,7.641-7.344,3.05-2.486,6.085-4.993,9.046-7.584.078-.068-.033-.172-.111-.111-.606.473-1.206.953-1.807,1.433.224-.26.447-.522.674-.772.024-.026-.014-.065-.039-.039-.45.469-.941.922-1.382,1.407l-.334.271a46.908,46.908,0,0,0,3.715-4.233c.107-.137-.067-.328-.2-.2-1.083,1.093-2.225,2.137-3.388,3.16a12.66,12.66,0,0,0,2.665-7.462c0-.095-.122-.1-.153-.021-1.534,3.72-3.007,7.479-6.114,10.2-.536.468-1.087.918-1.647,1.358q.516-.492,1-.985a29.52,29.52,0,0,0,6.552-10.154c.028-.073-.093-.123-.126-.053s-.062.131-.093.2a.1.1,0,0,0-.174-.021,60.27,60.27,0,0,1-7.308,8.9,99.955,99.955,0,0,1-8.536,7.156c.008-.235.013-.47.02-.705,4.45-4.425,8.989-8.694,13.821-12.706.071-.059-.02-.165-.1-.124a42.426,42.426,0,0,0-3.629,2.256,23.626,23.626,0,0,0,5.987-8.176c.054-.135-.142-.185-.214-.09-.1.131-.2.259-.3.389a10.016,10.016,0,0,0,.678-2.676c.017-.149-.2-.191-.271-.074a47.885,47.885,0,0,1-13.426,14.921c5.575-4.651,10.908-9.721,13.43-16.708.05-.138-.151-.2-.224-.094-3.76,5.61-7.727,11.256-13.038,15.52-.435.349-.959.674-1.448,1.022.1-.1.194-.194.292-.287q2.037-1.949,3.988-3.988c2.594-2.721,5.1-5.531,7.461-8.456.1-.124-.034-.352-.186-.241a44.08,44.08,0,0,0-7.738,7.358c-.97,1.152-1.887,2.346-2.8,3.546q-.284.375-.566.752c.238-.362.474-.726.732-1.075,1.883-2.55,4.11-4.81,6.086-7.284a24.014,24.014,0,0,0,4.219-7.458,36.344,36.344,0,0,0,1.518-9.448.057.057,0,0,0-.028-.056,18.382,18.382,0,0,0,.261-5.99c.016-.052.034-.1.05-.156.033-.105-.126-.145-.163-.045l-.013.033a.1.1,0,0,0-.125.087c-.019.134-.041.267-.06.4-1.357,3.6-2.8,7.173-4.4,10.672-3.047,4.48-5.744,9.18-10.022,12.6a38.446,38.446,0,0,0,12.506-23.677.07.07,0,0,0,0-.015c.1-.288.2-.575.294-.864a15.624,15.624,0,0,0,1.071-5.98c-.011-.145-.242-.2-.27-.037a47.059,47.059,0,0,1-1.123,4.9,50.714,50.714,0,0,0,1.426-9.41.164.164,0,0,0-.193-.166,14.762,14.762,0,0,0-.488-5.335.139.139,0,0,0-.164-.1,9.341,9.341,0,0,0-.523-3.591.138.138,0,0,0-.27.037,73.007,73.007,0,0,1-3.52,20.983,70,70,0,0,1-4.233,10.084,27.279,27.279,0,0,1-5.352,7.769c-.051-.394-.105-.788-.16-1.182a.125.125,0,0,0,.067-.03,29.182,29.182,0,0,0,6.489-8.9,46.519,46.519,0,0,0,3.664-10.119c1.882-7.78,1.945-15.752,2.069-23.7.44,1.9.96,3.791,1.5,5.658a.073.073,0,0,0,.14-.039c-.463-2.455-.962-4.932-1.617-7.343a.2.2,0,0,0-.382.052c.071,8.3-.061,16.8-1.953,24.924a46.088,46.088,0,0,1-3.712,10.4,42.288,42.288,0,0,1-6.3,8.823c0-.024-.006-.048-.01-.071-.069-.482-.144-.963-.218-1.443a16.131,16.131,0,0,0,3.231-3.61,34.678,34.678,0,0,0,2.818-4.53,45.458,45.458,0,0,0,3.678-9.743c2.057-7.994,2.156-16.269,2.344-24.468a.132.132,0,0,0-.264,0c-.051,2.216-.108,4.443-.2,6.67a54.287,54.287,0,0,0-.6-10.329.085.085,0,0,0,.022-.073,12.462,12.462,0,0,0-1.363-3.921,16.312,16.312,0,0,0-1.007-1.669q-.117-.173-.236-.34a.129.129,0,0,0-.03-.029c-.015-.038-.028-.077-.043-.115-.039-.1-.194-.062-.163.045.01.035.019.07.029.1a.1.1,0,0,0,0,.114c.019.03.036.06.055.09q.412,1.461.771,2.929a55.937,55.937,0,0,1-1.211,20.864,59,59,0,0,1-9.406,19.708c-.06-.269-.123-.537-.185-.805a37.6,37.6,0,0,0,5.377-8.575,53.448,53.448,0,0,0,4.915-16.935,47.339,47.339,0,0,0-1.016-17.871.167.167,0,0,0-.323.089c.2,1.108.389,2.21.558,3.31a10.839,10.839,0,0,0-2.542-5.437.2.2,0,0,0-.281,0c0-.015-.006-.03-.01-.045a.152.152,0,0,0-.133-.115,52.989,52.989,0,0,0-3.8-10.325c-.076-.161-.33-.045-.282.119.39,1.336.785,2.681,1.171,4.034a.214.214,0,0,0-.138.236,65.191,65.191,0,0,1,.068,21.25,75.789,75.789,0,0,1-6.458,19.64c-.149-.476-.3-.95-.458-1.425a59.371,59.371,0,0,0,6.857-21.623c.926-7.569.753-15.848-1.464-23.2a.177.177,0,0,0-.133-.129c-.021-.112-.04-.224-.061-.335a.2.2,0,0,0-.357-.087c-.12-.117-.393-.046-.376.155.118,1.342.24,2.677.346,4.011a.106.106,0,0,0-.007.019c-.178,1.052-.3,2.115-.4,3.181a30.511,30.511,0,0,0-3.1-12.477c-.08-.169-.311-.04-.281.119q.278,1.517.493,3.04c-.444,2.719-.5,5.529-.887,8.261q-.59,4.168-1.486,8.285c-1.2,5.484-3.026,10.731-4.613,16.1q-.387-.93-.78-1.858a70.4,70.4,0,0,0,5.544-16.375,65.922,65.922,0,0,0,1.645-17.36.163.163,0,0,0-.327,0,102.171,102.171,0,0,1-1.861,17.422,91.779,91.779,0,0,1-5.151,15.961l-.185-.432c2.076-7.126,2.419-14.492,2.478-21.877.056-7.082.191-14.319-2.669-20.94h0l-.017-.04c-.083-.192-.337-.041-.31.13q.116.727.223,1.454A11.756,11.756,0,0,0,327.4,65a.187.187,0,0,0-.341.144c.073.342.142.683.211,1.025a15.541,15.541,0,0,0-2.02-3.393.189.189,0,0,0-.212-.064,2.3,2.3,0,0,0-1.488-1.418.219.219,0,0,0-.158.016q-.251-.561-.551-1.1a.125.125,0,0,0-.031-.037c0-.019,0-.038,0-.057a.244.244,0,0,0-.447-.136,22.211,22.211,0,0,0-.2-2.237c-.035-.253-.428-.225-.484,0q-.192.772-.385,1.544a7.03,7.03,0,0,0-.507-2.439.2.2,0,0,0-.38,0c-.011.047-.024.093-.035.139a.226.226,0,0,0-.367.093c-.169.488-.333.977-.5,1.466.211-.953.42-1.907.61-2.864a.17.17,0,0,0-.328-.09q-1.957,5.12-3.9,10.245c-.622,1.638-1.207,3.288-1.788,4.941q-.189.538-.379,1.076c.008-.04.014-.069.017-.084.1-.381.2-.76.309-1.137,1.724-6.034,4.721-11.76,4.918-18.145a.189.189,0,0,0-.369-.05c-1.146,5.835-2.435,11.625-5.27,16.858a99.842,99.842,0,0,0,5.109-16.97.207.207,0,0,0-.283-.242,5.291,5.291,0,0,0-.021-.746.214.214,0,0,0-.418-.057c-.125.364-.246.73-.369,1.094.017-.546.038-1.093.032-1.639a.2.2,0,0,0-.391-.053c-.09.312-.18.623-.27.934.1-.551.193-1.1.27-1.662a.22.22,0,0,0-.423-.117A113.178,113.178,0,0,1,311.555,63.4c1.86-4.927,4.453-9.672,4.557-15.032a.2.2,0,0,0-.381-.052,85.746,85.746,0,0,1-5.378,14.113c1.357-4.389,3.379-8.574,4.108-13.142.044-.276-.378-.393-.421-.116-.807,5.114-3.227,9.761-4.5,14.749q-.289-.771-.573-1.544a65.582,65.582,0,0,0,3.111-7.469q.748-2.074,1.378-4.188a4.524,4.524,0,0,0,.232-2.833.176.176,0,0,0-.317-.041l-.05.078a.218.218,0,0,0-.369-.166,20.515,20.515,0,0,0-4.811,7.961,48.463,48.463,0,0,1,3.23-9.346c.117-.266-.251-.5-.4-.234a33.624,33.624,0,0,0-3.007,7.225c.714-3.5,1.726-6.949,2.688-10.394.064-.228-.294-.391-.391-.165l-.021.051h0v0a45.448,45.448,0,0,0-2.1,6.073,81.619,81.619,0,0,0-.357-10.682.2.2,0,0,0-.4,0q-.13,2.063-.235,4.129a6.951,6.951,0,0,0-2.008-4.214.2.2,0,0,0-.344.143c.006.641-.008,1.284-.009,1.927-.34-.8-.81-1.673-1.4-1.753-.464-.062-.7.267-.808.647a4.309,4.309,0,0,0-1.713-1.033c-.2-.063-.3.167-.2.306a3.486,3.486,0,0,0-.706-.229c-.118-.024-.272.056-.258.2a8.141,8.141,0,0,0,.155.99,6.232,6.232,0,0,0-1.1-.63c-.176-.078-.4.09-.282.282s.243.4.365.607a29.08,29.08,0,0,0,1.043,6,46.323,46.323,0,0,0,1.871,5.844,44.317,44.317,0,0,0,5.978,10.7c.121.448.25.9.379,1.342a56.441,56.441,0,0,1-6.469-10.843,43.887,43.887,0,0,1-1.758-4.843.158.158,0,0,0,0-.21c-.035-.046-.068-.092-.1-.138a66.216,66.216,0,0,1-1.523-6.517,6.251,6.251,0,0,1,.7,2.182c.02.129.229.1.224-.031a5.64,5.64,0,0,0-1.091-3.028c-.09-.13-.348-.1-.33.089a36.006,36.006,0,0,0,1.09,5.9,13.955,13.955,0,0,1-1.043-2.224c-.068-.185-.374-.171-.362.049a24.834,24.834,0,0,0,3.527,10.694,50,50,0,0,0,6.5,8.907,20.234,20.234,0,0,1-3.263-2.879c-1.013-.975-1.994-1.983-2.931-3.032a56.538,56.538,0,0,1-5.493-7.294.241.241,0,0,0-.438.184A15.1,15.1,0,0,0,297.4,55.3q.347.612.723,1.207c-1.089-1.366-2.186-2.725-3.278-4.088a.215.215,0,0,0-.358.095,5.1,5.1,0,0,0,.036,1.687,5.745,5.745,0,0,0-.463-.376.211.211,0,0,0-.308.126,2.673,2.673,0,0,0,.054,1.1.167.167,0,0,0-.2.191,11.992,11.992,0,0,0,.987,3.287.173.173,0,0,0-.128.21c.907,3.443,3.968,6.56,6.637,8.742a47.277,47.277,0,0,0,10.531,6.372c.041.106.084.211.126.317-6.574-3.505-14.1-5.536-19.469-10.953-.2-.2-.478.055-.372.287a8.23,8.23,0,0,0,.92,1.527,1.852,1.852,0,0,0-.477-.04.151.151,0,0,0-.1.254q1.04,1.293,2.15,2.511c-.827-.382-1.659-.755-2.466-1.181-.128-.068-.326.047-.266.2a5.424,5.424,0,0,0,.221.5.176.176,0,0,0-.205.214c.625,2.448,2.486,4.158,4.317,5.775a81.44,81.44,0,0,0,6.429,5.108A74.585,74.585,0,0,0,317.116,86.8a.127.127,0,0,0,.013,0c.173.389.345.775.518,1.163-4.876-2.784-9.742-5.547-14.445-8.622-4.165-2.723-9.478-5.663-11.356-10.562-.067-.175-.349-.1-.285.078.113.316.239.623.375.922a.2.2,0,0,0-.212.256c.661,2.4,2.822,3.935,4.653,5.442q3.231,2.661,6.647,5.083a100.932,100.932,0,0,0,15.133,9,.134.134,0,0,0,.175-.053l.45,1.01a100.68,100.68,0,0,1-14.839-8.442c-2.465-1.731-4.827-3.6-7.108-5.564-2.011-1.732-5.466-4.09-5.123-7.1.019-.163-.261-.2-.286-.039-.428,2.709,1.969,4.691,3.755,6.338q.834.769,1.691,1.512a33.33,33.33,0,0,1-6.033-5.173c-.111-.123-.3.008-.264.154a16.225,16.225,0,0,0,.43,1.574.153.153,0,0,0-.1.189c.114.433.217.87.334,1.3a.2.2,0,0,0-.27.191.151.151,0,0,0-.008.043,3.394,3.394,0,0,0,.421,1.854l-.109-.092a.2.2,0,0,0-.332.193c.13.494.238,1,.37,1.49l-.114-.084c-.1-.073-.215.086-.131.17.123.125.252.245.377.369.024.076.047.152.072.227-.206-.2-.415-.4-.62-.6-.109-.107-.347-.037-.327.135a14.9,14.9,0,0,0,.58,2.84.124.124,0,0,0-.064.213c.067.066.135.13.2.2.035.1.07.2.108.292-.212-.176-.421-.355-.634-.529-.154-.126-.369.077-.223.223a200.772,200.772,0,0,0,17.488,15.167,97.738,97.738,0,0,0,18.879,12.122c.186.481.373.962.554,1.444A69.7,69.7,0,0,1,321.148,108c-2.225-1.252-4.238-2.779-6.388-4.14a.177.177,0,0,0-.149-.021c-8.553-6.29-16.847-12.937-23.694-21.039a.168.168,0,0,0-.272.052l-.321-.412c-.145-.188-.469-.011-.326.191a96.579,96.579,0,0,0,7.175,8.842,117.732,117.732,0,0,0,15.237,14.147A87.6,87.6,0,0,0,329.336,116.32Zm-24.17-56.231a52.657,52.657,0,0,1-3.64-5.388,29.058,29.058,0,0,1-3.52-9.486,15.624,15.624,0,0,0,1.129,1.915,49.094,49.094,0,0,0,1.963,5.4A45.875,45.875,0,0,0,305.166,60.088Zm47.667,105.436a15.7,15.7,0,0,0,2.413-2.633,27.3,27.3,0,0,0,3.252-6.664c.044-.122.269-1.064.179-.518-.05.306-.126.626-.183.938a15.314,15.314,0,0,1-.525,2.04,15.087,15.087,0,0,1-1.978,3.879c-.058.083.03.156.108.141C355.02,163.657,353.923,164.589,352.834,165.525Zm2.506-43.973c-.569,2.366-1.183,4.724-1.871,7.06a56.228,56.228,0,0,0,1.808-12.668A12.836,12.836,0,0,1,355.34,121.552Zm1.879,31.842a71.573,71.573,0,0,1-14.878,13.834c0-.514-.008-1.028-.014-1.543,6.5-4.028,11.1-10.4,15.3-16.678-2.941,7.119-9.171,12.356-14.928,17.194-.105.089.033.262.146.189a48.246,48.246,0,0,0,15.289-15.779A10.373,10.373,0,0,1,357.218,153.394ZM342.294,170.7q.041-1.581.045-3.162a70.621,70.621,0,0,0,14.481-13.328.1.1,0,0,0,.182.014c.165-.26.313-.524.452-.791.079-.1.16-.2.24-.294-2.219,4.279-6.053,7.572-9.76,10.722q-1.19.99-2.356,2.02-.251.22-.5.44c-.138.122.063.318.2.2,1.923-1.64,4.017-3.281,5.992-5.048.148-.113.3-.227.445-.338a36.689,36.689,0,0,1,3.321-2.224l.076-.045-.1.074q-.593.449-1.176.911A88.962,88.962,0,0,0,342.294,170.7Zm-.031-7.822a.153.153,0,0,0,.111-.046A46.731,46.731,0,0,0,355.034,142.8a30,30,0,0,0,1.313-4.092c-.527,5.108-1.581,10.048-4.6,14.327-2.736,3.873-6.158,7.135-8.57,11.249-.03.052.046.115.085.066,3.333-4.191,6.7-8.527,10.97-11.807-3.771,4.459-7.725,8.746-11.906,12.827C342.312,164.543,342.29,163.712,342.264,162.881Zm1.766-2.147a89.228,89.228,0,0,0,8.267-12.2c.488-.9.969-1.825,1.428-2.772A49.52,49.52,0,0,1,344.03,160.735Zm-1.779,11.455c0-.115.007-.23.011-.346a.059.059,0,0,0,.061.005,40.951,40.951,0,0,0,8.848-7.17,54.667,54.667,0,0,0,7.015-8.777,35.668,35.668,0,0,1-6.534,9.505,32.263,32.263,0,0,1-4.749,4.053C345.414,170.495,343.8,171.278,342.251,172.189Zm-.223-13.956a.115.115,0,0,0,.058-.019c4-2.608,6.342-7.08,8.445-11.216a100.085,100.085,0,0,0,5.752-13.549,52.384,52.384,0,0,1-4.53,14.1,56.57,56.57,0,0,1-9.481,13.485.116.116,0,0,0,.164.164,49.41,49.41,0,0,0,14.182-28.122c.146,5.5-2.231,10.889-4.835,15.624a95.782,95.782,0,0,1-9.535,13.8c-.037-1.039-.091-2.078-.152-3.116a39.6,39.6,0,0,0,13.4-23.1c.016-.093-.121-.135-.144-.04a44.355,44.355,0,0,1-13.272,22.775C342.059,158.758,342.046,158.5,342.028,158.233Zm-.18-2.343c2.312-1.236,4.04-3.424,5.551-5.511,1.269-1.752,2.533-3.549,3.691-5.4-.232.482-.466.964-.705,1.443-2.154,4.307-4.5,8.552-8.375,11.548C341.963,157.276,341.908,156.582,341.849,155.89Zm-.269-2.81.14-.159a.043.043,0,0,0,.055-.009q1.167-1.253,2.25-2.582a48.7,48.7,0,0,0,9.631-17.384c.761-2.213,1.4-4.466,1.976-6.758a16,16,0,0,1-.477,2.784.027.027,0,0,0-.049.006q-.562,1.907-1.188,3.787l-.228.617a74.91,74.91,0,0,1-3.306,7.59,83.514,83.514,0,0,1-8.649,13.492c-.039.05.045.112.086.067.152-.167.3-.335.452-.5a4.517,4.517,0,0,0,.823-.944,55.091,55.091,0,0,0,11.133-20.224,41.284,41.284,0,0,1-12.42,22.564C341.74,154.642,341.662,153.861,341.58,153.08Zm-.112-1.043c7.876-8.014,11.3-18.815,13.972-29.482a51.139,51.139,0,0,1-4.117,15.426,54.978,54.978,0,0,1-9.8,14.6C341.506,152.4,341.488,152.218,341.468,152.037Zm3.128-4.027a38.2,38.2,0,0,1-2.394,3c.243-.334.468-.687.7-1.013,1.591-2.212,3.144-4.456,4.526-6.806a56.638,56.638,0,0,0,3.2-6.319A52.8,52.8,0,0,1,344.6,148.011Zm-3.334,2.336c2.471-1.973,4.049-4.716,5.5-7.487A69.248,69.248,0,0,0,354.6,112.2a10.271,10.271,0,0,1,.152,3.62c-.014.111.132.149.2.091a60.242,60.242,0,0,1-3.677,18.441,72.96,72.96,0,0,1-9.846,17.413Q341.353,151.055,341.262,150.346Zm10.854-34.924q.146-1.373.226-2.752-.069,1.358-.163,2.715A.1.1,0,0,0,352.116,115.423Zm-.083-7.168a43.822,43.822,0,0,0-2.155-11.307c-.022-.121-.043-.243-.066-.364a33.772,33.772,0,0,1,1.792,4.281A67.905,67.905,0,0,1,352.034,108.255Zm-11.467,37.393a47.283,47.283,0,0,0,8.288-13.929,52.668,52.668,0,0,0,2.19-6.9c-.237,1.31-.51,2.615-.832,3.909a45.358,45.358,0,0,1-3.633,9.843,36.591,36.591,0,0,1-2.672,4.406c-.963,1.357-2.175,2.523-3.144,3.863C340.7,146.442,340.633,146.045,340.567,145.648Zm-.294-1.679c3.037-2.195,4.846-6.007,6.416-9.3a59.191,59.191,0,0,0,3.94-10.938q.551-2.175.939-4.393c-.186,1.447-.389,2.892-.708,4.33a52.247,52.247,0,0,1-2.3,7.58,58.773,58.773,0,0,1-8.057,14.025C340.431,144.839,340.352,144.4,340.274,143.97Zm-.669-3.427a38.924,38.924,0,0,0,5.718-8.717,54.563,54.563,0,0,0,5.748-20.479c.136-1.793.229-3.658.194-5.515a45.889,45.889,0,0,1-.474,15.084c-.009.042-.018.084-.026.126a45.493,45.493,0,0,1-10.822,20.826.067.067,0,0,0,.095.095,35.933,35.933,0,0,0,6.326-8.423,42.928,42.928,0,0,0,1.969-4q-.849,2.309-1.883,4.544c-1.573,3.388-3.369,7.094-6.228,9.589Q339.933,142.1,339.6,140.542Zm-.313-1.455a45.408,45.408,0,0,0,5.282-8.142,54.462,54.462,0,0,0,5.853-30.132c.045.219.094.438.137.657a72.929,72.929,0,0,1,.152,9.877,54.1,54.1,0,0,1-5.733,20.279,83.961,83.961,0,0,1-5.431,8.655C339.466,139.883,339.379,139.485,339.291,139.088Zm3.951-50.824q.3,1.1.586,2.205c-.017,1.009-.027,2.018-.035,3.025Q343.63,90.867,343.242,88.264Zm.95.84a.184.184,0,0,0-.338.094h0c-.46-1.635-.938-3.264-1.416-4.894C343.1,85.886,343.668,87.485,344.192,89.1Zm4.242,15.245a60.025,60.025,0,0,1-.816,6.418,43.818,43.818,0,0,0,.324-8.961c-.007-.757-.031-1.514-.075-2.269a.148.148,0,0,0-.173-.139,33.464,33.464,0,0,0-1.253-5.628C348.495,96.781,348.666,100.819,348.434,104.349Zm-9.75,32.149c4.849-5.98,7-13.592,8.462-21.025a75.8,75.8,0,0,0,1.748-12.408,27.189,27.189,0,0,0-.1-3.39,47.432,47.432,0,0,1,.452,6.46,54.15,54.15,0,0,1-4.8,22.027,79.028,79.028,0,0,1-5.481,9.489C338.875,137.266,338.777,136.883,338.684,136.5Zm-.345-1.418c2.433-2.4,3.693-5.6,4.939-8.726a77.195,77.195,0,0,0,3.107-9.367c-1.468,6.84-3.647,13.535-7.759,19.272C338.53,135.867,338.439,135.473,338.339,135.08Zm-.49-1.859c.867.333,1.414-.732,1.811-1.382.85-1.393,1.625-2.831,2.341-4.3a56.59,56.59,0,0,0,3.416-8.811,63.811,63.811,0,0,0,2-9.156,50.262,50.262,0,0,1-.929,5.464,78.386,78.386,0,0,1-3.231,10.443c-1.248,3.294-2.523,6.782-4.972,9.4C338.145,134.323,338,133.772,337.85,133.221Zm-.268-.982a.127.127,0,0,0,.223.027,40.968,40.968,0,0,0,4.826-9.187A55.989,55.989,0,0,0,345.619,113a50.551,50.551,0,0,0,.335-19.4,34.187,34.187,0,0,1,1.609,7.972,62.094,62.094,0,0,1-2,15.175,58.542,58.542,0,0,1-2.926,8.241q-.861,1.974-1.865,3.882c-.451.857-1.8,4.22-2.993,4.109C337.718,132.727,337.65,132.483,337.582,132.239Zm-.463-1.644a29.169,29.169,0,0,0,4.641-8.254c2.228-5.942,3.086-12.371,3.789-18.646a28.894,28.894,0,0,0-.619-10.471q-.306-1.227-.64-2.446-.03-.788-.067-1.574c.457,1.422.878,2.859,1.282,4.313a70.506,70.506,0,0,1,.686,9.138,56.853,56.853,0,0,1-1.072,10.4,56.071,56.071,0,0,1-2.839,9.736,86.626,86.626,0,0,1-4.687,9.354.12.12,0,0,0-.012.1Q337.354,131.416,337.119,130.6Zm-.522-1.765a29.794,29.794,0,0,0,4.215-8.11,51.074,51.074,0,0,0,2.47-9.585,100.319,100.319,0,0,0,1.067-18.521c.229.986.442,1.973.628,2.96.835,4.434.067,8.97-.562,13.382-1.073,7.519-2.792,15.156-7.379,21.356Q336.82,129.57,336.6,128.83Zm-.378-1.231a55.91,55.91,0,0,0,6.913-20.147q.228-1.459.388-2.932c-.135,2.1-.346,4.2-.679,6.293a53.755,53.755,0,0,1-2.281,9.236,56.951,56.951,0,0,1-4.047,8.5C336.416,128.233,336.317,127.916,336.219,127.6Zm1.354-50.033a.189.189,0,0,0-.147-.07c-.037-.189-.073-.379-.112-.568C337.4,77.139,337.489,77.352,337.573,77.566Zm3.209,13.926c0,.23-.009.46-.014.69a.242.242,0,0,0-.091.022c.034-.259.07-.518.1-.777C340.782,91.448,340.783,91.47,340.783,91.492ZM335,123.868a.1.1,0,0,0,.15-.047,67.812,67.812,0,0,0,6.666-36.632c.293,1.838.523,3.686.636,5.565a62.868,62.868,0,0,1-.332,11.162,67.65,67.65,0,0,1-6.539,21.7Q335.3,124.741,335,123.868Zm-.594-1.735a64.719,64.719,0,0,0,6.015-20.2,78.274,78.274,0,0,0,.856-14.421q.017-.133.033-.265a73.726,73.726,0,0,1-6.367,36.45Q334.682,122.911,334.41,122.133Zm-.923-2.575c2.885-4.392,4.294-9.538,5.248-14.664a55.05,55.05,0,0,0,1.816-8.257q-.218,2.791-.639,5.563a97.391,97.391,0,0,1-5.6,19.654Q333.908,120.7,333.487,119.558Zm-1.171-3.084a.105.105,0,0,0,.026-.031,66.7,66.7,0,0,0,5.937-15.371,79.544,79.544,0,0,0,1.712-8.154c.261-1.688.56-3.447.7-5.2.014.281.028.561.039.842-.741,4.99-1.364,10-2.218,14.971-.021.122-.044.244-.065.367q-.205.755-.434,1.509a73.255,73.255,0,0,1-5.125,12.259.1.1,0,0,0,.173.1,56.241,56.241,0,0,0,4.359-9.012,42.089,42.089,0,0,1-4.056,10.481c-.233-.63-.467-1.259-.709-1.885C332.546,117.06,332.43,116.767,332.316,116.474Zm-.75-1.9a.116.116,0,0,0,.071-.053c6.336-10.033,8.009-22.685,6.247-34.388-.065-.832-.155-1.662-.279-2.487a29.4,29.4,0,0,1,1.609,5.777,43.663,43.663,0,0,1,.322,8.207.115.115,0,0,0,.15.1c-.053.421-.111.841-.179,1.26q-.634,3.914-1.635,7.755a105.4,105.4,0,0,1-5.657,15.47Q331.895,115.4,331.566,114.575Zm-.41-1.018a.1.1,0,0,0,.01-.015c1.2-2.9,2.1-5.962,3.017-8.957s1.756-6.046,2.406-9.127a65.728,65.728,0,0,0,1.291-8.774,53.24,53.24,0,0,1-6.413,27.641C331.364,114.068,331.259,113.813,331.155,113.557Zm-.872-2.128a72.242,72.242,0,0,0,5.078-16.134q.873-4.048,1.427-8.157c.212-1.59.47-3.243.629-4.894A61.754,61.754,0,0,1,336,95.958c-.645,3.008-1.451,5.982-2.327,8.931-.835,2.811-1.864,5.583-2.617,8.417Q330.672,112.366,330.283,111.429ZM317.678,53.194c-1.783,5.143-2.518,10.728-5.3,15.471-.013.022-.027.044-.04.066.075-.241.14-.489.213-.7l.773-2.284q.809-2.388,1.617-4.777c.93-2.765,1.876-5.526,2.775-8.3-.016.13-.036.261-.063.4A.181.181,0,0,0,317.678,53.194Zm10.507,53.3c1.485-2.554,1.586-5.694,1.852-8.572q.5-5.415.533-10.862a127.077,127.077,0,0,0-1.147-17.732.147.147,0,0,0,.034-.141c-.031-.119-.067-.235-.1-.352q-.108-.782-.224-1.563c2.291,6.283,1.971,13.291,1.911,19.872-.064,7.07-.325,14.255-2.089,21.134Q328.572,107.387,328.185,106.5Zm-.028-.5a159.877,159.877,0,0,0,1.436-20.231,83.282,83.282,0,0,0-1.956-19.845,9.684,9.684,0,0,1,1.36,2.81,129.887,129.887,0,0,1,1.2,17.9q-.01,5.112-.427,10.213c-.135,1.64-.286,3.281-.489,4.914A11.96,11.96,0,0,1,328.157,106Zm-1.01-1.873a.118.118,0,0,0,.076-.1c1.413-13.072,2.55-27-1.45-39.746a14.365,14.365,0,0,1,1.68,3.518.192.192,0,0,0,.159.136,96.127,96.127,0,0,1,1.551,18.047c-.05,6.624-.726,13.184-1.3,19.771Q327.506,104.937,327.147,104.125Zm-1.415-3.171a.124.124,0,0,0,.013-.026A64.984,64.984,0,0,0,327.855,88.1c-.1,5.229-.489,10.478-.846,15.715Q326.375,102.382,325.732,100.954Zm-1.047-2.313a43.488,43.488,0,0,0,1.674-8.609,67.285,67.285,0,0,0,.477-9.665,66.465,66.465,0,0,0-2.984-18.479c.807.412,1.01,1.465,1.24,2.3a.15.15,0,0,0,.16.106q.314,1.086.585,2.175a82.357,82.357,0,0,1,1.636,16.289,93.736,93.736,0,0,1-1.909,17.817Q325.126,99.61,324.685,98.642ZM323.71,96.5a.09.09,0,0,0,.026-.045,79.414,79.414,0,0,0,1.609-16.6,98.465,98.465,0,0,0-.5-12.061,68.583,68.583,0,0,1,1.484,12.568,70.125,70.125,0,0,1-.4,9.255c-.316,2.878-.991,5.672-1.476,8.51Q324.083,97.317,323.71,96.5ZM322.564,94a57.9,57.9,0,0,0,2.2-13.068q.061-.924.1-1.859c0,.262,0,.523,0,.785-.07,5.485-.77,10.851-1.318,16.294Q323.059,95.079,322.564,94Zm-1.225-2.662a64.932,64.932,0,0,0,2.423-15.264,71.848,71.848,0,0,0-.656-14.31q0-.137.007-.274a20.531,20.531,0,0,1,.806,2.55.1.1,0,0,0,.053.066c.025.1.051.19.076.285q.151,1.644.288,3.284c-.037-.218-.4-.164-.383.052a100.5,100.5,0,0,1,.348,12.992A95.212,95.212,0,0,1,322.423,93.7Zm-1.328-2.891a51.416,51.416,0,0,0,3.314-14.5q-.023.957-.069,1.915A99.684,99.684,0,0,1,321.137,90.9Q320.573,89.676,320.011,88.45Zm-.815-1.78A85.686,85.686,0,0,0,323,64.512c.06.7.116,1.41.161,2.116a.206.206,0,0,0-.232.216,67.3,67.3,0,0,1-.635,11.119,68.012,68.012,0,0,1-2.45,10.135Zm-1.2-2.648a88.516,88.516,0,0,0,4.351-18.062c-.193,2.706-.476,5.4-.875,8.091-.612,4.115-1.55,8.139-2.468,12.19Q318.494,85.134,317.992,84.023Zm-1.041-2.309a.126.126,0,0,0,.2-.033,67.738,67.738,0,0,0,3.173-9.71c.446-1.709.854-3.431,1.194-5.165l.015-.074a99.552,99.552,0,0,1-3.753,16.829Q317.364,82.638,316.951,81.714Zm-1.443-3.252a94.236,94.236,0,0,0,6.339-19.075c.043.67.049,1.338.029,2.008-.98,2.832-1.819,5.72-2.693,8.584-1,3.284-2.046,6.583-2.819,9.93a.089.089,0,0,0,.171.047c1.161-3.236,2.1-6.565,3.1-9.853.6-1.981,1.235-3.957,1.838-5.941-.156.91-.291,1.827-.474,2.72-.342,1.663-.712,3.318-1.133,4.963-.843,3.3-1.943,6.49-2.959,9.733a.116.116,0,0,0,0,.026Q316.2,80.035,315.508,78.462Zm-1.673-3.86a.115.115,0,0,0,.09-.064,102.408,102.408,0,0,0,5.638-14.413c-1.484,5.5-3.223,10.926-4.772,16.415-.035.123.14.163.186.051a126.163,126.163,0,0,0,5.66-18.968,8.076,8.076,0,0,1,.164,3.246.111.111,0,0,0,.069.122c-.622,2.435-1.276,4.86-2.032,7.264-1.05,3.341-2.265,6.618-3.462,9.907Q314.6,76.386,313.835,74.6Zm-.525-1.243a.087.087,0,0,0,.063-.059c1.026-2.966,2.328-5.851,3.435-8.789q1.363-3.619,2.718-7.24-.168,1.1-.328,2.2c-.716,2.123-1.425,4.248-2.2,6.354-1.044,2.852-2.223,5.65-3.29,8.492C313.577,74,313.445,73.678,313.311,73.359Zm-.9-2.15a.149.149,0,0,0,.158-.053,26.319,26.319,0,0,0,2.2-3.827,43.216,43.216,0,0,0-1.545,5.816C312.949,72.5,312.677,71.856,312.41,71.21Zm-.6-1.468a.119.119,0,0,0,.166-.025c2.6-3.733,3.657-8.116,4.875-12.436a107.7,107.7,0,0,1-4.521,13.739C312.158,70.594,311.986,70.167,311.813,69.741Zm-.657-1.636a.193.193,0,0,0,.142-.075,25.606,25.606,0,0,0,3.3-7.691q1.279-4.161,2.447-8.355c.024.367.049.735.067,1.1-1.843,5.493-3.553,11.033-5.328,16.548a.123.123,0,0,0,0,.023Q311.465,68.882,311.156,68.1Zm1.292-2.893q.262-.651.52-1.3Q312.727,64.568,312.448,65.211Zm-1.934,1.264s.006-.006.008-.011a116.549,116.549,0,0,0,5.446-13.327,90.84,90.84,0,0,1-4.953,14.613Q310.762,67.114,310.514,66.476Zm-.781-2.031a.166.166,0,0,0,.062-.067,92.722,92.722,0,0,0,5.8-14.272c-.682,5.555-3.707,10.509-5.281,15.847Q310.018,65.2,309.733,64.445ZM299.494,39.63a.186.186,0,0,0-.128.07l-.158-.261C299.307,39.5,299.4,39.565,299.494,39.63Zm.639.5c1.839,1.624,2.824,4.219,3.794,6.394a54.534,54.534,0,0,1,2.032,5.156,30.028,30.028,0,0,1,.769,2.928q-.013.939-.02,1.878a84.234,84.234,0,0,0-2.622-8.049,63.511,63.511,0,0,0-4.07-7.655l-.322-1.007c.12.09.238.181.352.278A.171.171,0,0,0,300.133,40.125Zm6.672,18.34c.032.142.065.283.1.425a12.441,12.441,0,0,1-.808-1.854c-.387-.884-.778-1.764-1.151-2.654-.651-1.55-1.283-3.107-1.881-4.678-.892-2.344-1.687-4.715-2.457-7.1a61.117,61.117,0,0,1,3.023,5.858c1.28,2.907,1.906,6.048,3.073,8.988,0,.129,0,.259,0,.388a.121.121,0,0,0,.115.129.128.128,0,0,0-.015.095c.019.095.042.189.063.284A.1.1,0,0,0,306.8,58.465Zm-2.561-14.353A59.958,59.958,0,0,1,306.8,51.1c-.013.525-.031,1.049-.041,1.574a51.29,51.29,0,0,0-2.567-6.55c-.985-2.2-1.991-4.77-3.862-6.382a10.715,10.715,0,0,1-.2-1.1C302.311,39.324,303.379,42.224,304.244,44.113Zm.331-.967c.483,1.019.946,2.048,1.4,3.08.253.575.52,1.144.733,1.727q.086.5.159,1.012c-.015.457-.032.914-.045,1.371a35.52,35.52,0,0,0-2.583-7.153c-.736-1.549-1.576-3.569-3.1-4.53a4.865,4.865,0,0,1,1.341,1.01v.011a.14.14,0,0,0,.148.149A13.9,13.9,0,0,1,304.575,43.146Zm1.2.935c.238.723.436,1.45.6,2.183l-.074-.175c-.492-1.188-1.018-2.362-1.563-3.526a12.654,12.654,0,0,0-1.869-3.123c.123-.181.373-.219.755-.109q.2.337.387.681c.219.4.424.809.621,1.221.063.132.122.266.182.4.005.093.01.185.017.278a.129.129,0,0,0,.162.122Q305.426,43.038,305.77,44.081Zm1.279.172q-.066,1.447-.121,2.894a22.413,22.413,0,0,0-1.7-5.811c-.024-.055-.052-.123-.081-.2.036-.789.029-1.582.039-2.372C306.482,40.123,306.929,42.213,307.05,44.253Zm.07,12.134q.03.132.06.265c-.013.122-.029.244-.041.367-.029.176-.055.354-.082.531l-.046-.135Q307.062,56.9,307.119,56.388Zm.675-6.125q-.423,1.8-.694,3.631.066-1.917.14-3.832a.1.1,0,0,0,.073-.088,4.184,4.184,0,0,0-.03-1.017q.153-3.865.341-7.729C307.8,44.235,307.759,47.244,307.794,50.262Zm-.449,5q-.024-.155-.051-.311c.184-1.382.412-2.761.7-4.126a.127.127,0,0,0,.073-.114c0-.088.006-.176.009-.263a37.032,37.032,0,0,1,1.134-4.032A68.417,68.417,0,0,0,307.345,55.267Zm1.016,5.448a.119.119,0,0,0,.1-.093,60.834,60.834,0,0,1,4.17-11.311.067.067,0,0,0,.029-.019c.274-.308.528-.632.775-.962a7.713,7.713,0,0,1-.71,3.494q-.546,1.7-1.157,3.377c-.831,2.282-1.815,4.489-2.771,6.717C308.652,61.518,308.5,61.117,308.361,60.715Zm-.677-1.936a22.721,22.721,0,0,1,4.447-9.417,49.5,49.5,0,0,0-3.888,11.014C308.055,59.845,307.867,59.313,307.684,58.779Zm-.369-.942c.048-.3.1-.6.159-.9a.122.122,0,0,0,.039-.1c0-.024,0-.048-.005-.072q.2-1.026.461-2.04a22.042,22.042,0,0,0-.417,3.283c-.016.082-.034.162-.048.244-.033-.1-.067-.193-.1-.29A.27.27,0,0,0,307.315,57.837Zm.215,3.608a52.361,52.361,0,0,1-5.406-10.284,49.619,49.619,0,0,1-1.787-5.669c-.409-1.623-.624-3.273-.926-4.91l.242.4a104.113,104.113,0,0,0,3.53,10.205q1.059,2.662,2.251,5.265c.376.822.766,2.3,1.585,2.94Q307.261,60.423,307.53,61.445Zm-7.847.078.094.083a24.949,24.949,0,0,1-2.485-2.308,19.976,19.976,0,0,1-1.77-2.185,6.12,6.12,0,0,1-1.374-2.719,3.755,3.755,0,0,1,.54.484C295.464,57.475,297.875,59.89,299.683,61.523Zm8.581,2.538-.068-.086a.127.127,0,0,0-.076-.141l-.055-.025-.051-.064a.131.131,0,0,0,.137-.06C308.188,63.811,308.228,63.936,308.264,64.061Zm.406,1.329c-3.218-.952-5.725-3.416-7.828-5.947a30.584,30.584,0,0,1-3.029-4.379,21.731,21.731,0,0,1-1.647-3.274,51.209,51.209,0,0,0,5.024,6.4,49.216,49.216,0,0,0,3.557,3.49,11.305,11.305,0,0,0,3.193,2.333c.1.109.2.222.3.329a.082.082,0,0,0,.109.017C308.457,64.707,308.564,65.048,308.67,65.39ZM309,66.423a26.8,26.8,0,0,1-8.579-4.888A23.586,23.586,0,0,1,297,57.856a14.511,14.511,0,0,1-1.555-2.451.152.152,0,0,0-.014-.153c-.044-.068-.092-.129-.138-.194a5.145,5.145,0,0,1-.408-1.914c1.269,1.584,2.531,3.173,3.816,4.744a.183.183,0,0,0,.316-.051q.705,1,1.485,1.951c2.173,2.633,4.885,5.321,8.325,6.1C308.878,66.065,308.938,66.243,309,66.423Zm.96,2.862a30.871,30.871,0,0,1-4.279-2.442c-1.338-.848-2.661-1.72-3.932-2.666a23.54,23.54,0,0,1-3.43-3.113q.661.6,1.36,1.153a38.911,38.911,0,0,0,4.663,3.139c.857.5,1.727.97,2.6,1.432a4.576,4.576,0,0,0,2.115.863.018.018,0,0,0,.015-.027,4.368,4.368,0,0,0-1.741-1.159c-.715-.391-1.428-.786-2.132-1.2l-.062-.037a20.139,20.139,0,0,0,3.942,1.449C309.359,67.551,309.653,68.419,309.955,69.284Zm.558,1.571a17.6,17.6,0,0,0-2.009-1.038c-.937-.472-1.871-.948-2.789-1.455a34.891,34.891,0,0,1-5.456-3.614,19.182,19.182,0,0,1-6.045-8.647,11.267,11.267,0,0,0,1.058,1.607c1.253,2.734,3.7,4.984,6.015,6.774a49.237,49.237,0,0,0,4.121,2.82,18.517,18.517,0,0,0,4.729,2.5C310.26,70.157,310.387,70.506,310.513,70.855ZM311.5,73.5c-3.356-2.028-6.862-3.725-9.93-6.217a26.032,26.032,0,0,1-3.787-3.742,16.419,16.419,0,0,1-1.4-2.052,21.689,21.689,0,0,0,3.24,3.406,32.28,32.28,0,0,0,5.328,3.61c1.032.571,2.084,1.109,3.146,1.622a12.573,12.573,0,0,0,2.552,1.1Q311.065,72.367,311.5,73.5Zm-16.629-7.4q-.3-.208-.6-.4a.128.128,0,0,0-.2.1,11.274,11.274,0,0,1-.9-1.08C293.724,65.207,294.291,65.664,294.873,66.1ZM312.964,77.16a78.755,78.755,0,0,1-9.5-4.85q-2.339-1.424-4.555-3.037c-1.213-.879-2.353-1.923-3.563-2.829,5,3.568,11.1,5.472,16.594,8.17Q312.441,75.891,312.964,77.16Zm1.583,3.764c-1.966-.991-4.059-1.733-6.008-2.78a54.216,54.216,0,0,1-5.722-3.536,54.913,54.913,0,0,1-6.957-5.875.126.126,0,0,0,.078-.233c-.2-.1-.406-.206-.61-.305-.913-.936-1.794-1.9-2.632-2.895a1.1,1.1,0,0,1,.5.186q.183.218.377.427c.018.032.037.061.053.1a.1.1,0,0,0,.081.048c.757.8,1.61,1.521,2.438,2.241,1.64,1.427,3.345,2.785,5.112,4.051a71.617,71.617,0,0,0,12.035,6.934c.245.112.459-.249.212-.364a74.864,74.864,0,0,1-11.361-6.54q-2.718-1.9-5.262-4.032c.5.368,1,.725,1.485,1.079,1.576,1.157,3.208,2.239,4.882,3.25a58.956,58.956,0,0,0,9.85,4.812Q313.809,79.211,314.546,80.924Zm.733,1.688A119.442,119.442,0,0,1,303.2,76.038c-3.84-2.48-7.955-5.14-10.756-8.809.851.422,1.711.848,2.592,1.2a49.775,49.775,0,0,0,7.4,6.473,50.622,50.622,0,0,0,6.043,3.708,28.96,28.96,0,0,0,6.223,2.667C314.891,81.724,315.086,82.167,315.279,82.612Zm.739,1.678a101.236,101.236,0,0,1-11.806-6.848q-1.693-1.151-3.332-2.381.705.484,1.419.955a66.768,66.768,0,0,0,13.113,6.906C315.613,83.379,315.817,83.833,316.018,84.29Zm.913,2.06a111.194,111.194,0,0,1-13.422-7.832q-3.392-2.385-6.562-5.058c-1.918-1.612-4.079-3.31-4.833-5.792a7.7,7.7,0,0,0,.893,1.19.124.124,0,0,0,.026.073,33.715,33.715,0,0,0,5.407,4.795q2.62,2.089,5.4,3.968a81.932,81.932,0,0,0,12.319,6.914Q316.543,85.48,316.931,86.35Zm1.315,2.957a149.14,149.14,0,0,1-13.972-8.486q-1.511-1.056-2.988-2.157l.614.4a148.627,148.627,0,0,0,15.8,9.284.155.155,0,0,0,.123.009Zm-26.407-6.242a.154.154,0,0,0,.037-.091q.54.519,1.088,1.029C292.591,83.687,292.214,83.377,291.839,83.065Zm-.561-7.174c.08.087.162.171.242.258a.115.115,0,0,0,.065.069,78.69,78.69,0,0,0,8.592,7.94c-.915-.64-1.833-1.274-2.762-1.893a.119.119,0,0,0-.127,0q-2.756-2.269-5.492-4.57a.124.124,0,0,0,.03-.174A3.361,3.361,0,0,1,291.278,75.891Zm28.405,16.653c-2.222-1.456-4.768-2.562-7.08-3.843-2.5-1.387-4.987-2.8-7.418-4.307-2.474-1.534-4.9-3.154-7.224-4.9-2.246-1.686-4.292-3.571-6.421-5.391-.143-.423-.3-.843-.438-1.267a22.006,22.006,0,0,0,7.078,5.487q2.066,1.715,4.241,3.3a76.606,76.606,0,0,0,16.55,9.319l.284.637C319.4,91.9,319.54,92.22,319.683,92.544Zm.724,1.639C318,92.9,315.5,91.775,313.1,90.457q-3.807-2.093-7.47-4.435a130.8,130.8,0,0,1-13.989-10.443c-.049-.239-.105-.475-.165-.711.022.04.042.081.065.121a.134.134,0,0,0,.246-.083,51.855,51.855,0,0,0,5.625,4.758c2.37,1.8,4.84,3.465,7.37,5.03s5.138,3.06,7.768,4.48a66.649,66.649,0,0,0,7.309,3.777Q320.134,93.566,320.407,94.183Zm.753,1.706c-1.213-.659-2.594-1.117-3.827-1.7q-2.043-.968-4.04-2.029a87.622,87.622,0,0,1-7.741-4.674,89.014,89.014,0,0,1-11.706-9.5,113.144,113.144,0,0,0,11.389,8.325c2.55,1.634,5.16,3.173,7.833,4.6a64.266,64.266,0,0,0,7.487,3.606C320.755,94.974,320.959,95.43,321.16,95.888Zm1.009,2.313c-4.131-2.538-8.4-4.832-12.484-7.461-.3-.195-.6-.394-.9-.592q2.26,1.368,4.6,2.591,2.007,1.045,4.071,1.975a23.606,23.606,0,0,0,3.874,1.571C321.612,96.924,321.892,97.562,322.169,98.2Zm1.281,2.988a38.635,38.635,0,0,0-3.591-2.346q-2.077-1.35-4.128-2.739-4.191-2.83-8.259-5.836-1.752-1.295-3.467-2.63c1.735,1.188,3.5,2.329,5.237,3.449a103.012,103.012,0,0,0,13.1,7.508Q322.9,99.891,323.45,101.189Zm.739,1.748c-2.854-1.847-5.856-3.46-8.7-5.327-2.831-1.858-5.58-3.836-8.286-5.869q-4.293-3.225-8.42-6.655c-2.338-1.932-4.587-4.022-7.029-5.826-.077-.433-.178-.862-.28-1.291a187.851,187.851,0,0,0,15.4,12.508q4.229,3.133,8.593,6.077,2.053,1.385,4.141,2.717a24.266,24.266,0,0,0,4.042,2.4C323.83,102.09,324.011,102.513,324.189,102.937Zm.8,1.916a186.032,186.032,0,0,1-33.27-25.043.114.114,0,0,0,.092-.063c2.289,2.194,4.846,4.159,7.286,6.171,2.582,2.129,5.183,4.241,7.841,6.273q4.115,3.146,8.452,5.988a55.586,55.586,0,0,0,8.847,5.02.081.081,0,0,0,.063,0C324.528,103.751,324.76,104.3,324.987,104.853Zm.911,2.25c-2.917-1.911-5.949-3.654-8.873-5.557q-4.415-2.873-8.7-5.938c-5.777-4.151-11.16-8.736-16.645-13.248a17.1,17.1,0,0,1-.659-2.675,143.414,143.414,0,0,0,34.125,25.563Q325.527,106.175,325.9,107.1Zm.9,2.28A141.609,141.609,0,0,1,308.074,96.95c-3.371-2.659-6.584-5.5-9.8-8.331,3.074,2.517,6.264,4.9,9.456,7.215,2.95,2.138,5.963,4.2,9.039,6.15a96.791,96.791,0,0,0,9.24,5.4Q326.4,108.383,326.793,109.383Zm1.68,4.487c-2.45-1.8-4.931-3.573-7.415-5.357a44.242,44.242,0,0,0,6.515,2.914C327.878,112.24,328.18,113.053,328.473,113.871Zm.753,2.134c-3.144-1.887-6.327-3.7-9.391-5.716a117.762,117.762,0,0,1-15.973-12.623,116.2,116.2,0,0,1-9.414-10.081c4.077,4.329,8.935,8.057,13.5,11.7a220.472,220.472,0,0,0,20.552,14.91.112.112,0,0,0,.092.016Q328.915,115.105,329.226,116Zm7.913,68.406q-.113.969-.24,1.937a31.79,31.79,0,0,1-7.684-3.337,14.037,14.037,0,0,1-5.33-4.923,22.027,22.027,0,0,0,11.9,6.712c.169.034.29-.2.123-.291a48.166,48.166,0,0,1-9.244-6.7,50.218,50.218,0,0,1,5.047,3.713A12.98,12.98,0,0,0,337.139,184.41Zm.307-2.961,0,0q-.082.88-.174,1.759c-.031.287-.065.574-.1.86-.065-.016-.128-.036-.192-.053-5.054-4.046-10.087-8.008-13.219-13.726a57.356,57.356,0,0,0,5.3,6.162,65.813,65.813,0,0,0,7.6,6.312c.163.119.336-.134.207-.269-2.243-2.34-4.513-4.684-6.841-6.938a.055.055,0,0,0-.078.078c1.382,1.54,2.8,3.057,4.236,4.56a36.617,36.617,0,0,1-6.48-6.625,23.48,23.48,0,0,1-2.378-4.055,18.6,18.6,0,0,1-.833-2.191c.08.156.166.31.237.454A33.189,33.189,0,0,0,337.446,181.449Zm-10.373-10.27q4.217,4.58,8.784,8.82A34.012,34.012,0,0,1,327.073,171.179Zm5.777,4.043q.929.8,1.806,1.653c.953,1.016,1.891,2.022,2.768,3.03a.133.133,0,0,0,.157.041c-.029.357-.059.713-.091,1.07-1.826-1.649-3.633-3.316-5.388-5.041-.47-.462-4.608-4.941-4.842-4.772.251-.181,2.582,1.648,2.831,1.831C331.038,173.729,331.961,174.454,332.85,175.222Zm-7.728-13.763a54.005,54.005,0,0,0,5.783,10.676C328.229,169,325.944,165.63,325.122,161.459Zm12.6,16.607q-.054.78-.116,1.56-.171-.207-.344-.412a.084.084,0,0,0,0-.128q-.371-.357-.736-.723c-1.124-1.283-2.306-2.538-3.47-3.807a45.252,45.252,0,0,1-7.94-13.683A42.78,42.78,0,0,0,337.724,178.066Zm.332-11.613q.012,1.085.006,2.17c-1.033-4.824-4.416-9.32-8.233-12.313a39.661,39.661,0,0,0-6.368-3.759,14.276,14.276,0,0,1-5.3-4.09c3.166,2.858,7.1,4.447,10.668,6.763a23.89,23.89,0,0,1,9.151,11.147A.167.167,0,0,0,338.056,166.453Zm-12.2-15.182c-2.026-.987-4.14-1.776-6.11-2.883a9.778,9.778,0,0,1-5.121-7.374c2.153,4.242,6.157,7.148,10.135,9.591Q325.306,150.941,325.856,151.271ZM335.49,140.1a61.165,61.165,0,0,1-10.268-7.672,60.275,60.275,0,0,1-7.574-8.829,67.633,67.633,0,0,0,7.593,7.61,74.685,74.685,0,0,0,9.862,7.5.1.1,0,0,0,.124,0C335.315,139.168,335.406,139.632,335.49,140.1Zm.252,1.395a.127.127,0,0,0-.051-.073c-3.737-2.647-7.737-4.8-11.179-7.87A28.359,28.359,0,0,1,317,123.293a48.474,48.474,0,0,0,18.545,17.088C335.607,140.751,335.677,141.121,335.741,141.492Zm1.709,12.965c-.509-.6-.918-1.343-1.414-1.944a18.159,18.159,0,0,0-1.848-1.955c-.079-.071-.161-.138-.242-.206l.02.014A12.448,12.448,0,0,1,336,152.2c.537.612,1.009,1.62,1.452,2.224Zm.3,3.88a31.506,31.506,0,0,0-9.029-8.057c-2.539-1.515-5.99-2.773-8.257-4.925a15.721,15.721,0,0,0,1.558.573,35.391,35.391,0,0,1,5.876,2.68,37.312,37.312,0,0,1,9.742,8.128Q337.695,157.536,337.746,158.337Zm.138,2.484a.121.121,0,0,0-.014-.041,15.138,15.138,0,0,0-2.237-3.013q1.115,1.038,2.206,2.127C337.856,160.2,337.869,160.512,337.884,160.821Zm-.2.066a.108.108,0,0,0,.2-.058c.041.846.077,1.693.1,2.539a23.646,23.646,0,0,0-7.522-9.245c.356.235.711.473,1.061.718A25.648,25.648,0,0,1,337.687,160.887Zm-11-11.29a35.066,35.066,0,0,1,11.079,9.093c.019.306.04.613.057.919a43.2,43.2,0,0,0-11.7-9.6c-2.392-1.385-4.917-2.54-6.92-4.495q-.354-.346-.682-.71a.093.093,0,0,0,0-.1,4.636,4.636,0,0,1-.593-3.142C318.617,145.842,323.2,147.8,326.689,149.6Zm1.889-1.821a17.925,17.925,0,0,1,5.084,2.766,23.764,23.764,0,0,1,3.82,4.281q.068.8.129,1.6a34.224,34.224,0,0,0-7.992-7.176,35.478,35.478,0,0,0-5.095-2.74q-1.184-.517-2.4-.944c-.864-.3-2.209-.579-2.584-1.541C322.351,145.762,325.5,146.607,328.578,147.777Zm3.2-.2a23.179,23.179,0,0,1,3.943,2.5,8.143,8.143,0,0,1,1.5,1.99l0,.041q.095.908.177,1.818c-1.454-2.807-4.034-4.579-6.931-5.922-1.861-.863-3.774-1.621-5.669-2.406-1.482-.614-3.589-1.123-4.816-2.335,2.594,1.7,5.6,2.4,8.588,3.223A26.361,26.361,0,0,1,331.779,147.582Zm5.236,3.056a.13.13,0,0,0,.05.047c.032.285.067.571.1.856-.082-.148-.171-.287-.26-.427a.1.1,0,0,0,.114-.151,12.762,12.762,0,0,0-.964-.978,10.74,10.74,0,0,0-3.893-2.638c-1.5-.786-3.078-1.445-4.6-2.1-3.336-1.421-7.751-3.015-9.3-6.57a32.1,32.1,0,0,0,8.723,5.5C330.414,145.783,334.944,147.244,337.015,150.638ZM316.423,129.13c4.912,7.737,12.4,13.61,20.226,18.211q.164,1.215.311,2.433c-1.224-2.249-3.409-3.84-5.412-5.36-2.157-1.636-4.395-3.16-6.565-4.778-4.138-3.086-7.857-6.623-9.911-11.452-.56-1.316-1.012-2.679-1.444-4.041-.066-.209-.121-.436-.176-.665A37.832,37.832,0,0,0,316.423,129.13ZM336.2,144.241q.132.854.256,1.71a62.318,62.318,0,0,1-8.4-5.566c-2.727-2.185-5.021-4.732-7.533-7.138-.089-.085-.252.03-.176.136a38.124,38.124,0,0,0,7.592,7.385,50.594,50.594,0,0,0,8.557,5.489c.027.193.056.385.083.578a70.606,70.606,0,0,1-13.637-10.326,48.858,48.858,0,0,1-5.836-6.984,42.6,42.6,0,0,1-2.924-4.722A50.851,50.851,0,0,0,336.2,144.241Zm-19.745-20.33c2.782,9,11.3,15.237,19.533,19.008.058.357.116.713.172,1.071A61.612,61.612,0,0,1,317.592,129,8.943,8.943,0,0,1,316.453,123.911Zm-11.846-16.457c2.723,5.252,7.194,9.753,11.371,13.689,3.178,2.994,6.447,5.892,9.718,8.783,2.772,2.45,5.6,5.507,9.143,6.806.118.583.235,1.166.346,1.75-3.329-2.5-6.625-5-9.743-7.758-3.04-2.694-5.787-5.657-8.706-8.47a.052.052,0,0,0-.045-.013l-.024-.034c-.1-.146-.333-.016-.241.141.16.274.324.546.49.817-.077-.046-.2,0-.161.112a25.313,25.313,0,0,0,7.148,10.354,52.049,52.049,0,0,0,11.663,8,.12.12,0,0,0,.178-.118c.063.364.129.727.19,1.092-4.2-2.473-8.44-4.794-12.034-8.149a25.928,25.928,0,0,1-7.289-11.228.092.092,0,0,0,.086-.155,77.2,77.2,0,0,1-7.755-8.268,36.442,36.442,0,0,1-3.161-4.83A26.368,26.368,0,0,1,304.607,107.454Zm29.871,27.774a.182.182,0,0,0,.054.026c.087.412.175.824.259,1.236a19.7,19.7,0,0,1-4.9-3.42c-1.631-1.433-3.249-2.881-4.87-4.327-2.976-2.654-5.96-5.306-8.867-8.036a73.414,73.414,0,0,1-7.35-7.8,40.126,40.126,0,0,1-4.68-7.542C311.728,117.571,323.181,126.552,334.478,135.228Zm-.811-3.844q.169.717.332,1.435c-5.607-4.526-11.479-8.764-16.88-13.537a75.589,75.589,0,0,1-12.862-15.156,125.243,125.243,0,0,0,13.234,14.356q3.866,3.618,8,6.932A70.692,70.692,0,0,0,333.667,131.384Zm-1.91-7.331c-2.606-1.922-5.228-3.817-7.833-5.736a77.526,77.526,0,0,0,7.143,3.655.146.146,0,0,0,.087.009Q331.461,123.015,331.757,124.053ZM317.6,115.636q.98.8,1.959,1.58a126.493,126.493,0,0,0,12.874,9.279q.272,1.016.532,2.035c-4.963-4.25-10.024-8.385-15.019-12.6C317.832,115.834,317.718,115.734,317.6,115.636Zm-12.734-12.113c3.537,3.234,7.239,6.281,11.007,9.242a.145.145,0,0,0,.011.2,23.236,23.236,0,0,0,3.356,2.439c.072.048.146.093.218.141,3.957,3.039,7.991,6.029,12.171,8.737a.114.114,0,0,0,.176-.055c.181.64.361,1.28.535,1.921-4.307-3.117-8.633-6.18-12.782-9.511-4.169-3.347-8.018-7.037-12.1-10.482a.1.1,0,0,0-.085-.023Q306.11,104.847,304.868,103.523Zm-9.931-11.844q.512.683,1.043,1.351c4.478,5.616,10.032,10.308,15.659,14.726,5.872,4.61,12.037,9.236,18.912,12.259.121.387.245.773.363,1.162.048.157.093.314.141.471-2.573-1.3-5.106-2.664-7.582-4.137q-1.851-1.1-3.65-2.286c-.109-.072-.217-.146-.326-.221q-.838-.64-1.67-1.289c-4.161-3.246-8.212-6.627-12.286-9.981a.1.1,0,0,0,.049-.178,39.9,39.9,0,0,1-8.563-8.807C296.292,93.747,295.6,92.719,294.937,91.679Zm35.211,27.072q.164.506.324,1.013a116.324,116.324,0,0,1-10.4-6.319,159.013,159.013,0,0,1-17.3-13.667,53.164,53.164,0,0,1-10.523-12.886,62.4,62.4,0,0,0,4.328,5.729,93.469,93.469,0,0,0,15.406,14.034c3,2.253,6.085,4.4,9.192,6.513A66.576,66.576,0,0,0,330.147,118.751Z" fill="#432918"/><path d="M426,495.12a40.422,40.422,0,0,1,11.478,13.674,17.992,17.992,0,0,0-5.845-5.416.158.158,0,0,0-.227.119c-.193-.4-.376-.812-.543-1.23-.01-.025-.05-.016-.042.012a17.68,17.68,0,0,0,7.785,9.713.187.187,0,0,0,.254-.253,37.757,37.757,0,0,0-6.048-7.316,21.6,21.6,0,0,1,5.615,6.374.177.177,0,0,0,.3-.178q-.548-1.252-1.185-2.468c.418.69.831,1.378,1.241,2.059a.12.12,0,0,0,.207-.121,72.066,72.066,0,0,0-4.821-7.7c.163.167.325.335.482.507a30.891,30.891,0,0,1,4.127,5.668c.061.108.214.013.163-.1a23.8,23.8,0,0,0-3.915-5.677,42.841,42.841,0,0,0-3.762-3.856,24.6,24.6,0,0,0-5.073-4.067C426.04,494.77,425.85,495.005,426,495.12Zm12.062,16.087a19.106,19.106,0,0,1-6.59-7.57A42.566,42.566,0,0,1,438.06,511.207Z" transform="translate(-100.995 -339.26)" fill="#432918"/><path d="M329.45,718.193a15.559,15.559,0,0,0,5.068,2.767,10.511,10.511,0,0,0,1.064.274,3.42,3.42,0,0,0,.869.11q.826-.554.459-1.286a15.918,15.918,0,0,0-.768-2.773.181.181,0,0,1,.22-.22c3.7.576,6.3,3.839,9.869,4.808a14.157,14.157,0,0,0-.854-3.654c-.1-.269.193-.455.419-.419a10.227,10.227,0,0,1,4.55,1.987q0-.945,0-1.891a.4.4,0,0,1,.592-.34,23.433,23.433,0,0,0,4.1,1.929,36.634,36.634,0,0,1-2.4-4.95c-.114-.29.21-.5.456-.456a7.912,7.912,0,0,1,5.492,3.725c.179.3-.269.549-.459.268a7.535,7.535,0,0,0-4.513-3.14,40.033,40.033,0,0,0,2.71,5.092.42.42,0,0,1-.47.611,25.043,25.043,0,0,1-4.731-2.058q-.006,1.006-.012,2.011a.388.388,0,0,1-.655.271,10.4,10.4,0,0,0-4.25-2.253,14.856,14.856,0,0,1,.626,3.637.286.286,0,0,1-.358.273c-3.639-.979-6.317-3.865-9.895-5.005.2.682.4,1.362.6,2.044.126.433.437,1.04.263,1.5-.206.554-.789.621-1.315.565a13.747,13.747,0,0,1-6.806-3.31C329.242,718.241,329.364,718.125,329.45,718.193Z" transform="translate(-29.214 -502.085)" fill="#432918"/></g></svg>