<svg xmlns="http://www.w3.org/2000/svg" width="160.275" height="155.185" viewBox="0 0 160.275 155.185">
  <g id="Grupo_643" data-name="Grupo 643" transform="translate(-192.634 -87.997)">
    <path id="Caminho_31856" data-name="Caminho 31856" d="M259.953,130.772s-14.9-20.812-13.022-41.486a43.174,43.174,0,0,1-7.237,5.091l-8.12-2.368s1.789,28.238,26.762,44C261.5,133.409,259.953,130.772,259.953,130.772Z" transform="translate(8.421 0.279)" fill="#83b7a4"/>
    <g id="Grupo_180" data-name="Grupo 180" transform="translate(192.634 87.997)">
      <g id="Grupo_174" data-name="Grupo 174" transform="translate(0 47.87)">
        <g id="Grupo_172" data-name="Grupo 172" transform="translate(4.181 8.362)">
          <path id="Caminho_31857" data-name="Caminho 31857" d="M279.927,233.184l-83.856-13.936V134.231l83.856,8.362Z" transform="translate(-196.071 -134.231)" fill="#d8c173"/>
          <path id="Caminho_31858" data-name="Caminho 31858" d="M264.826,233.184l68.289-12.543V134.231l-68.289,8.362Z" transform="translate(-181.203 -134.231)" fill="#c4a95c"/>
        </g>
        <g id="Grupo_173" data-name="Grupo 173">
          <path id="Caminho_31859" data-name="Caminho 31859" d="M347.984,135.4l-69.336,7.887-82.577-7.96v26.481l82.577,7.959,69.336-7.887Z" transform="translate(-191.89 -125.632)" fill="#d3d3d3" style="mix-blend-mode: multiply;isolation: isolate"/>
          <path id="Caminho_31860" data-name="Caminho 31860" d="M279.391,166.4l-86.757-8.362v-26.48l86.757,8.362Z" transform="translate(-192.634 -126.447)" fill="#e5cd88"/>
          <path id="Caminho_31861" data-name="Caminho 31861" d="M263.966,166.4l73.518-8.362v-26.48l-73.518,8.362Z" transform="translate(-177.208 -126.447)" fill="#d1b366"/>
          <path id="Caminho_31862" data-name="Caminho 31862" d="M192.634,132.466l70.847-5.11,89.428,5.11-73.518,8.362Z" transform="translate(-192.634 -127.356)" fill="#efd697"/>
        </g>
      </g>
      <g id="Grupo_179" data-name="Grupo 179" transform="translate(25.848)">
        <g id="Grupo_175" data-name="Grupo 175" transform="translate(0 49.148)">
          <path id="Caminho_31863" data-name="Caminho 31863" d="M302.637,225.9l-15.467,2.841V136.131l15.467-1.9Z" transform="translate(-198.039 -127.147)" fill="#74a091"/>
          <path id="Caminho_31864" data-name="Caminho 31864" d="M223.86,224.987l15.466,2.579V136.059l-15.466-1.491Z" transform="translate(-211.729 -127.074)" fill="#74a091"/>
          <path id="Caminho_31865" data-name="Caminho 31865" d="M279.759,128.406l23.323,1.3-63.756,7.683L223.86,135.9Z" transform="translate(-211.729 -128.406)" fill="#83b7a4"/>
          <path id="Caminho_31866" data-name="Caminho 31866" d="M233.51,128.86,213.886,130.2l88.836,7.09,15.762-1.9Z" transform="translate(-213.886 -128.308)" fill="#83b7a4"/>
        </g>
        <g id="Grupo_178" data-name="Grupo 178" transform="translate(12.918)">
          <g id="Grupo_176" data-name="Grupo 176" transform="translate(39.932)">
            <path id="Caminho_31867" data-name="Caminho 31867" d="M294.769,116.881a5.988,5.988,0,0,0-4.028-3.527,36.542,36.542,0,0,0-5.438.064c.848,2.616.8,10.5-7.865,14.261a63.464,63.464,0,0,1-13.868,3.672c-1.08,1.459-1.749,2.4-1.749,2.4l.658,2.628s15.57-1.117,24.506-4.993S295.7,119.227,294.769,116.881Z" transform="translate(-256.37 -82.529)" fill="#588776"/>
            <path id="Caminho_31868" data-name="Caminho 31868" d="M257.339,135.072a99.087,99.087,0,0,0,13.641-18.045c7.78-12.254,19.338-4.818,23.28-1.664-2.172-1.705-9.111-1.531-12.132,3.724s-6.264,13.927-17.563,18.438C258.26,137.569,257.339,135.072,257.339,135.072Z" transform="translate(-257.339 -83.189)" fill="#74a091"/>
            <path id="Caminho_31869" data-name="Caminho 31869" d="M262.271,133.814S274.734,116.789,265.379,88a52.491,52.491,0,0,0,8.3,4.529L280.825,88s7.418,28.881-12.194,50.957A17.791,17.791,0,0,1,262.271,133.814Z" transform="translate(-256.272 -87.997)" fill="#93c9b3"/>
          </g>
          <g id="Grupo_177" data-name="Grupo 177" transform="translate(0 28.766)">
            <path id="Caminho_31870" data-name="Caminho 31870" d="M251.764,131.462a24.8,24.8,0,0,0,4.532,4.625c6.281,1.142,12.229,1.061,16.613-1.205,0,0-5.533,1-11.952-7.332s-12.071-15.151-19.1-14.583c-2.373.192-4.275,1.945-5.35,4.34C241.85,118.937,246.556,124.7,251.764,131.462Z" transform="translate(-221.913 -111.37)" fill="#588776"/>
            <path id="Caminho_31871" data-name="Caminho 31871" d="M245.069,132.26c-10.564-4.223-7.649-18.444-.619-19.014a10.23,10.23,0,0,1,3.814.42h0s-10.232-3.258-17.261-1.491-9.475,12.625-1.63,19.063c7.375,6.054,29.606,7.644,38.409,5.8C260.862,137.408,252.54,135.246,245.069,132.26Z" transform="translate(-224.507 -111.648)" fill="#74a091"/>
          </g>
          <path id="Caminho_31872" data-name="Caminho 31872" d="M256.887,125.683s4.275,4.948,1.989,9.1c6.025,1.382,11.6-.8,12.419-1.494s-.793-9.359-6.517-9.732C261.489,125.884,259.813,125.971,256.887,125.683Z" transform="translate(-217.505 -80.307)" fill="#83b7a4"/>
        </g>
      </g>
    </g>
  </g>
</svg>
