<svg xmlns="http://www.w3.org/2000/svg" width="175.306" height="132.654" viewBox="0 0 175.306 132.654">
  <g id="Grupo_639" data-name="Grupo 639" transform="translate(-370.963 -109.798)">
    <g id="Grupo_40" data-name="Grupo 40" transform="translate(370.963 109.798)">
      <path id="Caminho_55" data-name="Caminho 55" d="M527.894,165.875a14.4,14.4,0,0,1,1.494,11.3c-1.84,7.074-8.016,11.591-13.792,10.088s-8.966-8.456-7.126-15.532a14.13,14.13,0,0,1,7.667-9.552L508.574,129.1l-20.136,25.666a16.423,16.423,0,0,1,3.466,12.889c-1.113,8.312-7.516,14.312-14.3,13.4s-11.384-8.383-10.269-16.692a16.261,16.261,0,0,1,7.242-11.849L458.616,109.8l-15.96,42.716a16.261,16.261,0,0,1,7.242,11.849c1.115,8.31-3.484,15.785-10.268,16.692s-13.19-5.09-14.3-13.4a16.423,16.423,0,0,1,3.466-12.889L408.658,129.1,401.1,162.181a14.135,14.135,0,0,1,7.667,9.552c1.84,7.076-1.35,14.029-7.126,15.532s-11.951-3.015-13.792-10.088a14.405,14.405,0,0,1,1.494-11.3L370.963,148.4l11.472,50.725v4.734H534.8v-4.734L546.269,148.4ZM425.756,186.8a8.823,8.823,0,0,1-2.511,5.548,14.628,14.628,0,0,1-2.486,1.384c4.438-2.408,4.686-12.093-.582-13.472-6.216-1.63-7.6,11.288-1.922,13.655a13.8,13.8,0,0,1-3.049-1.781,9.055,9.055,0,0,1-2.344-5.845c-.214-4.182,2.709-9.89,7.694-8.668C424.472,178.579,426.123,183.158,425.756,186.8Zm38.817-.511a9.216,9.216,0,0,1-2.137,5.63,12.318,12.318,0,0,1-3.685,2.148c6.175-1.886,4.864-15.513-1.5-13.812-5.252,1.4-5.017,11.055-.588,13.472a13.365,13.365,0,0,1-2.26-1.195,8.494,8.494,0,0,1-2.65-5.151c-.6-3.836,1.049-8.893,5.3-9.79C461.982,176.549,464.782,182.152,464.572,186.286Zm39.8,0a9.2,9.2,0,0,1-2.137,5.63,12.216,12.216,0,0,1-3.69,2.15c6.182-1.879,4.873-15.516-1.494-13.815-5.249,1.4-5.017,11.042-.6,13.466a13.239,13.239,0,0,1-2.248-1.188,8.5,8.5,0,0,1-2.652-5.151c-.6-3.836,1.051-8.893,5.3-9.79C501.779,176.549,504.582,182.152,504.369,186.286Z" transform="translate(-370.963 -109.798)" fill="#f2c300"/>
      <rect id="Ret창ngulo_8" data-name="Ret창ngulo 8" width="152.362" height="6.6" transform="translate(11.472 126.054)" fill="#f2c300"/>
      <path id="Caminho_56" data-name="Caminho 56" d="M528.355,153.045H375.994v22.874H528.355ZM389.218,167.81c-1.459,0-2.643-1.612-2.643-3.6s1.184-3.6,2.643-3.6,2.643,1.612,2.643,3.6S390.677,167.81,389.218,167.81Zm20.977,0c-1.46,0-2.643-1.612-2.643-3.6s1.183-3.6,2.643-3.6,2.643,1.612,2.643,3.6S411.654,167.81,410.2,167.81Zm20.977,0c-1.46,0-2.643-1.612-2.643-3.6s1.183-3.6,2.643-3.6,2.643,1.612,2.643,3.6S432.632,167.81,431.172,167.81Zm20.975,0c-1.459,0-2.643-1.612-2.643-3.6s1.183-3.6,2.643-3.6,2.643,1.612,2.643,3.6S453.607,167.81,452.147,167.81Zm20.977,0c-1.46,0-2.643-1.612-2.643-3.6s1.184-3.6,2.643-3.6,2.643,1.612,2.643,3.6S474.584,167.81,473.124,167.81Zm20.977,0c-1.459,0-2.643-1.612-2.643-3.6s1.184-3.6,2.643-3.6,2.643,1.612,2.643,3.6S495.561,167.81,494.1,167.81Zm20.977,0c-1.459,0-2.643-1.612-2.643-3.6s1.184-3.6,2.643-3.6,2.643,1.612,2.643,3.6S516.538,167.81,515.079,167.81Z" transform="translate(-364.521 -54.426)" fill="#f2c300"/>
    </g>
    <g id="Grupo_41" data-name="Grupo 41" transform="translate(370.963 109.798)">
      <path id="Caminho_57" data-name="Caminho 57" d="M458.639,203.857V180.12a3.975,3.975,0,0,0-1.389.132c-5.252,1.4-5.017,11.055-.588,13.472a13.365,13.365,0,0,1-2.26-1.195,8.494,8.494,0,0,1-2.65-5.151c-.6-3.836,1.049-8.893,5.3-9.79a5.561,5.561,0,0,1,1.592-.107v-67.62l-.023-.064-15.96,42.716a16.261,16.261,0,0,1,7.242,11.849c1.115,8.31-3.484,15.785-10.268,16.692s-13.19-5.09-14.3-13.4a16.423,16.423,0,0,1,3.466-12.889L408.658,129.1,401.1,162.181a14.135,14.135,0,0,1,7.667,9.552c1.84,7.076-1.35,14.029-7.126,15.532s-11.951-3.015-13.792-10.088a14.405,14.405,0,0,1,1.494-11.3L370.963,148.4l11.472,50.725v4.734Zm-38.082-26.238c3.915.96,5.566,5.539,5.2,9.178a8.823,8.823,0,0,1-2.511,5.548,14.628,14.628,0,0,1-2.486,1.384c4.438-2.408,4.686-12.093-.582-13.472-6.216-1.63-7.6,11.288-1.922,13.655a13.8,13.8,0,0,1-3.049-1.781,9.055,9.055,0,0,1-2.344-5.845C412.648,182.1,415.572,176.4,420.556,177.619Z" transform="translate(-370.963 -109.798)" fill="#d89f09"/>
      <rect id="Ret창ngulo_9" data-name="Ret창ngulo 9" width="76.205" height="6.6" transform="translate(11.472 126.054)" fill="#d89f09"/>
      <path id="Caminho_58" data-name="Caminho 58" d="M375.994,175.919h76.2v-8.111l-.05,0c-1.459,0-2.643-1.612-2.643-3.6s1.183-3.6,2.643-3.6h.05v-7.562h-76.2Zm55.178-15.313c1.459,0,2.643,1.612,2.643,3.6s-1.184,3.6-2.643,3.6-2.643-1.612-2.643-3.6S429.713,160.607,431.172,160.607Zm-20.977,0c1.459,0,2.643,1.612,2.643,3.6s-1.184,3.6-2.643,3.6-2.643-1.612-2.643-3.6S408.736,160.607,410.2,160.607Zm-20.977,0c1.46,0,2.643,1.612,2.643,3.6s-1.184,3.6-2.643,3.6-2.643-1.612-2.643-3.6S387.758,160.607,389.218,160.607Z" transform="translate(-364.521 -54.426)" fill="#d89f09"/>
    </g>
  </g>
</svg>
