<svg xmlns="http://www.w3.org/2000/svg" width="135.996" height="169.949" viewBox="0 0 135.996 169.949"><g transform="translate(-121.312 -27.051)"><g transform="translate(121.312 40.273)"><g transform="translate(0 0)"><path d="M150.1,384.335l31.389,26.583H224.4L201.763,361H179.2Z" transform="translate(-139.759 -254.192)" fill="#5a8c9e"/><path d="M155.888,345.8s-5.322,18.768-5.792,28.794c0,0,4.326,2.945,17-3.091a45.734,45.734,0,0,0,18.711-16.647Z" transform="translate(-139.759 -244.45)" fill="#4f7a8a"/><path d="M133.328,78.132a4.915,4.915,0,0,0-2.322,3.751c-.1,2.475-.413,7.528-.413,7.528s-3.3,2.062-3.3,2.991-1.134,18.184-1.134,18.734-4.847,17.669-4.847,18.8,10.621,37.743,10.621,37.743,6.909,6.394,8.147,12.478.619,22.893.619,22.893,11.962-3.919,16.809-8.25,9.726-8.954,10.019-12.366S149.659,96.4,149.659,96.4Z" transform="translate(-121.312 -72.909)" fill="#ffbb91"/><path d="M153.216,91.215s8.463,45.9,19.312,62.776S201.9,186.436,201.9,186.436s2.776-13.962,22.665-21.195c0,0-10.648-13.259-8.136-16.875a85.446,85.446,0,0,0,4.721-7.835s-15.971-41.184-16.976-48.517c0,0-.9-1.909-4.621.2s-3.717,3.516-3.717,3.516S188,86.791,184.481,83.275s-14.464-13.259-14.464-13.259L166.4,71.824l-7.032-8.237s-6.027,2.712-5.625,5.223a16.7,16.7,0,0,0,1.607,4.721s-2.562,3.114-2.135,5.123,3.039,8.638,3.039,8.638S152.9,89.568,153.216,91.215Z" transform="translate(-141.728 -63.587)" fill="#ffd0b3"/><path d="M153.356,130.275a8.587,8.587,0,0,1,2.387-2.9,21.588,21.588,0,0,1,3.091-1.979s5.827,15.121,9.538,21.226a55.479,55.479,0,0,1,5.207,10.834" transform="translate(-141.848 -103.198)" fill="none" stroke="#ad7d61" stroke-miterlimit="10" stroke-width="1"/><path d="M159.246,88.576s1.557-1.469,2.275-1.514c0,0,9.219,16.5,12.451,20.987s9.607,16.071,9.607,16.071" transform="translate(-145.623 -78.632)" fill="none" stroke="#ad7d61" stroke-miterlimit="10" stroke-width="1"/><path d="M170.434,63.587s18.249,20.708,22.2,29.237,6.374,14.455,6.374,14.455" transform="translate(-152.793 -63.587)" fill="none" stroke="#ad7d61" stroke-miterlimit="10" stroke-width="1"/><path d="M253.783,132.717s6.273,5.848,9.146,11.863,7.9,19.572,7.9,19.572" transform="translate(-206.209 -107.891)" fill="none" stroke="#ad7d61" stroke-miterlimit="10" stroke-width="1"/><path d="M161.451,125.817s-4.439,2.8-4.082,5.014a28.97,28.97,0,0,0,2.4,6.151l4.593-3.97Z" transform="translate(-144.407 -103.469)" fill="#ffbb91"/><path d="M160.289,87.062s-3.154,3.406-2.956,4.773,2.511,4.891,2.511,4.891a19.889,19.889,0,0,1,4.678-2.207Z" transform="translate(-144.391 -78.632)" fill="#ffbb91"/><path d="M157.349,66.692s1.513,4.419,3.59,4.629,4.414-1.658,5.375-2.775l-4.265-4.96S158.192,65.389,157.349,66.692Z" transform="translate(-144.407 -63.587)" fill="#ffbb91"/><path d="M198.6,85.085,194,80.778l-3.286,1.937,3.653,4.948S197.395,87.477,198.6,85.085Z" transform="translate(-165.792 -74.604)" fill="#ffbb91"/><path d="M134.808,148.38s4.414-10.473,5.52-11.268a4.263,4.263,0,0,1,1.723-.865" transform="translate(-129.961 -110.154)" fill="none" stroke="#85614c" stroke-miterlimit="10" stroke-width="1"/><path d="M153.465,173.8a52.273,52.273,0,0,1-1.015,6.487c-.789,3.572-2.745,9.185-2.745,9.185" transform="translate(-139.508 -134.218)" fill="none" stroke="#85614c" stroke-miterlimit="10" stroke-width="1"/><path d="M137.928,110.347a4.5,4.5,0,0,1,2.5-2.83,12.114,12.114,0,0,0,3.021-1.974" transform="translate(-131.961 -90.476)" fill="none" stroke="#85614c" stroke-miterlimit="10" stroke-width="1"/><path d="M360.031,378.949l-43.908-39.684s-16.617,2.346-25.051,12.418-9.475,15.508-9.475,15.508l18.064,29.8h60.37Z" transform="translate(-224.035 -240.262)" fill="#79bcd4"/></g><path d="M154.864,133.224s.878,6.234,4.708,18.684,15.875,38.058,19.825,43.923,5.4,10.622,8.752,13.734,17.16,14.756,17.16,14.756l-3.888,6.163s-20.833-17.689-29.728-33.578c-5.832-10.417-6.625-14.888-9.811-26.054s-7.744-31.321-7.744-31.321-1.533-4.479.1-5.7Z" transform="translate(-141.931 -108.216)" fill="#9e4610" opacity="0.25" style="mix-blend-mode:multiply;isolation:isolate"/><path d="M157.9,134.8s.759,6.016,2.493,5.956,3.962-1.986,3.962-1.986l.557,1.322-4.764,3.945s-2.627-5.785-2.783-7.448S157.9,134.8,157.9,134.8Z" transform="translate(-144.403 -109.223)" fill="#9e5d34" opacity="0.38" style="mix-blend-mode:multiply;isolation:isolate"/><path d="M156.226,106.39s-3.449-8.174-2.862-9.686a22.091,22.091,0,0,1,1.4-2.874s12.924,26.1,14.987,29.683,4.59,6.784,5.106,7.867a17.874,17.874,0,0,1,.825,3.868l-2.381,1.278s-4.684-9.17-5.51-10.768-8.045-16.452-8.871-18.618-.576-1.73-.576-1.73Z" transform="translate(-141.811 -82.969)" fill="#9e5d34" opacity="0.38" style="mix-blend-mode:multiply;isolation:isolate"/><path d="M302.5,336.968s-15.973,8.424-19.506,14.06-4.152,7.453-4.152,7.453l2.916,2.577s4.591-10.406,11.6-14.414,11.738-6.2,11.738-6.2Z" transform="translate(-222.272 -238.79)" fill="#9e4610" opacity="0.25" style="mix-blend-mode:multiply;isolation:isolate"/><path d="M157.91,95.782a8.192,8.192,0,0,0,.785,2.7,25.008,25.008,0,0,0,1.95,3.211s2.64-1.166,3.2-1.352.7-.231.7-.231l.291.506a37.633,37.633,0,0,0-4.428,2.552s-2.195-3.2-2.715-4.278A2.986,2.986,0,0,1,157.91,95.782Z" transform="translate(-144.412 -84.22)" fill="#9e5d34" opacity="0.38" style="mix-blend-mode:multiply;isolation:isolate"/><path d="M182.061,112.473s-6.129-13.19-9.032-16.691S161.255,77.67,160.11,75.556a44.211,44.211,0,0,0-3.8-5.316s-1.942,1.335-1.607,2.834a34.217,34.217,0,0,0,1.607,4.393l2.275-1.186s10.585,18.748,12.451,20.987,9.118,15.19,9.118,15.19Z" transform="translate(-142.686 -67.851)" fill="#9e5d34" opacity="0.38" style="mix-blend-mode:multiply;isolation:isolate"/><path d="M157.137,71.27s2.854,4.619,4.208,4.577,4.482-2.377,4.482-2.377l.366.648s-3.238,2.7-4.723,2.823a4.1,4.1,0,0,1-3.433-2.092c-.511-.925-1.447-3.064-1.447-3.064Z" transform="translate(-143.921 -68.511)" fill="#9e5d34" opacity="0.38" style="mix-blend-mode:multiply;isolation:isolate"/><path d="M191.581,84.753s12.24,11.972,16.338,17.407S214,119.766,214,119.766h-2.446s-5.331-14.686-11.937-22.743a129.575,129.575,0,0,1-8.905-11.761Z" transform="translate(-165.792 -77.152)" fill="#9e5d34" opacity="0.38" style="mix-blend-mode:multiply;isolation:isolate"/><path d="M277.172,141.362s-.513,3.382,1.233,10.3a83.94,83.94,0,0,1,2.181,13.027s-4.22-11.432-6-14.565-2.616-4.545-2.616-4.545S272.882,142.711,277.172,141.362Z" transform="translate(-217.863 -113.431)" fill="#9e5d34" opacity="0.38" style="mix-blend-mode:multiply;isolation:isolate"/><path d="M151.441,74.378a2.884,2.884,0,0,0,.281,2.554,24.9,24.9,0,0,1,1.586,3.187s-3.208,3.392-2.044,6.44,2.78,7.236,2.78,7.236-3.954,1.664-2.485,8.023,9.674,43.7,15.409,53.367,18.6,24.845,18.6,24.845a9.673,9.673,0,0,1-2.311,4.647s-21.678-20.175-26.264-37.652-5.2-28.462-5.2-28.462-1.54,5.086-1.676,5.5-.917-4.324-.571-8.935.17-17.663.17-17.663.763-3.36,1.188-4.611-1.357-6.293-1.357-6.293.345-3.459.7-5.194S151.441,74.378,151.441,74.378Z" transform="translate(-139.352 -70.503)" fill="#9e5d34" opacity="0.38" style="mix-blend-mode:multiply;isolation:isolate"/><path d="M194.567,356.944s-5.758,12.189-19.133,15.716l-.138,6.258s20.375-4,26.828-20.616l-4.729-5.755Z" transform="translate(-155.909 -248.775)" fill="#9e5d34" opacity="0.38" style="mix-blend-mode:multiply;isolation:isolate"/><path d="M291.072,372.58l40.192,45.306h-31.6l-18.064-29.8s3.639-10.137,10.187-16.216" transform="translate(-224.035 -261.159)" fill="#9e4610" opacity="0.25" style="mix-blend-mode:multiply;isolation:isolate"/><path d="M234.388,368.573l13.275,12.74-1.928,4.66,18.064,29.8h-9.916l-28.244-35.327S232.772,372.28,234.388,368.573Z" transform="translate(-188.173 -259.045)" fill="#9e5d34" opacity="0.38" style="mix-blend-mode:multiply;isolation:isolate"/><path d="M155.888,345.8l.916,1.516a86.3,86.3,0,0,0-4.572,20.793c-.3,4.264-.52,6.485-.52,6.485H150.1S151.954,353.435,155.888,345.8Z" transform="translate(-139.759 -244.45)" fill="#79bcd4"/></g><line y1="15.33" x2="29.428" transform="translate(196.939 78.5)" fill="none" stroke="#fff" stroke-miterlimit="10" stroke-width="1"/><line y1="10.178" x2="13.241" transform="translate(195.47 73.787)" fill="none" stroke="#fff" stroke-miterlimit="10" stroke-width="1"/><line x2="16.079" transform="translate(198.623 99.298)" fill="none" stroke="#fff" stroke-miterlimit="10" stroke-width="1"/><line y1="11.668" x2="9.021" transform="translate(193.07 62.119)" fill="none" stroke="#fff" stroke-miterlimit="10" stroke-width="1"/><line y1="3.762" x2="5.502" transform="translate(213.889 65.846)" fill="none" stroke="#fff" stroke-miterlimit="10" stroke-width="1"/><line x2="11.148" transform="translate(221.273 99.298)" fill="none" stroke="#fff" stroke-miterlimit="10" stroke-width="1"/><line x2="17.265" y2="5.163" transform="translate(202.91 110.493)" fill="none" stroke="#fff" stroke-miterlimit="10" stroke-width="1"/><line x2="8.874" y2="3.55" transform="translate(225.661 117.754)" fill="none" stroke="#fff" stroke-miterlimit="10" stroke-width="1"/><line y1="7.103" x2="0.871" transform="translate(174.545 45.497)" fill="none" stroke="#fff" stroke-miterlimit="10" stroke-width="1"/><line y1="9.631" x2="0.88" transform="translate(175.416 31.762)" fill="none" stroke="#fff" stroke-miterlimit="10" stroke-width="1"/><line y1="32.936" x2="10.995" transform="translate(182.074 27.209)" fill="none" stroke="#fff" stroke-miterlimit="10" stroke-width="1"/><line y1="13.574" x2="11.207" transform="translate(189.779 49.048)" fill="none" stroke="#fff" stroke-miterlimit="10" stroke-width="1"/><line x1="2.403" y1="21.495" transform="translate(159.267 27.209)" fill="none" stroke="#fff" stroke-miterlimit="10" stroke-width="1"/></g></svg>