<svg xmlns="http://www.w3.org/2000/svg" xmlns:xlink="http://www.w3.org/1999/xlink" width="184" height="194" viewBox="0 0 184 194">
  <defs>
    <radialGradient id="radial-gradient" cx="0.5" cy="0.5" r="0.5" gradientUnits="objectBoundingBox">
      <stop offset="0" stop-color="#f8cfcf"/>
      <stop offset="1" stop-color="#fdd" stop-opacity="0.514"/>
    </radialGradient>
  </defs>
  <g id="little_baby" data-name="little baby" transform="translate(-652.801 -4.023)">
    <g id="baby" transform="translate(680.765 11.487)">
      <ellipse id="shadow" cx="54" cy="25.5" rx="54" ry="25.5" transform="translate(3.036 135.535)" fill="#e0e0e0" opacity="0.663"/>
      <g id="tronco" transform="translate(44.952 99.122)" fill="#ffe8d5">
        <path d="M 31.27310752868652 66.08449554443359 C 27.12251663208008 66.08449554443359 23.09602737426758 65.21908569335938 19.30548667907715 63.51230239868164 C 15.64182758331299 61.86265563964844 12.35089778900146 59.50037384033203 9.524107933044434 56.49108505249023 C 6.695257663726807 53.47958374023438 4.474067687988281 49.97223281860352 2.922257423400879 46.06646347045898 C 1.314967513084412 42.02104568481445 0.4999975264072418 37.72317504882812 0.4999975264072418 33.29224395751953 C 0.4999975264072418 28.86131477355957 1.314967513084412 24.56344413757324 2.922257423400879 20.51801490783691 C 4.474067687988281 16.61225318908691 6.695257663726807 13.10490417480469 9.524107933044434 10.09340381622314 C 12.35088729858398 7.084114074707031 15.64181709289551 4.721834182739258 19.30548667907715 3.072183847427368 C 23.09602737426758 1.365413904190063 27.12251663208008 0.5000039339065552 31.27310752868652 0.5000039339065552 C 35.42369842529297 0.5000039339065552 39.45018768310547 1.365413904190063 43.24072647094727 3.072183847427368 C 46.90438842773438 4.721834182739258 50.19531631469727 7.084114074707031 53.02209854125977 10.09340381622314 C 55.85095596313477 13.10490417480469 58.07214736938477 16.61225318908691 59.62394714355469 20.51801490783691 C 61.23124694824219 24.56344413757324 62.04621887207031 28.86131477355957 62.04621887207031 33.29224395751953 C 62.04621887207031 37.72317504882812 61.23124694824219 42.02104568481445 59.62394714355469 46.06646347045898 C 58.07214736938477 49.97223281860352 55.85095596313477 53.47958374023438 53.02209854125977 56.49108505249023 C 50.19531631469727 59.50037384033203 46.90438842773438 61.86265563964844 43.24071884155273 63.51230239868164 C 39.45018768310547 65.21908569335938 35.42369842529297 66.08449554443359 31.27310752868652 66.08449554443359 Z" stroke="none"/>
        <path d="M 31.27310752868652 0.9999923706054688 C 27.19376754760742 0.9999923706054688 23.23634719848633 1.850570678710938 19.51077651977539 3.528095245361328 C 15.90741729736328 5.150585174560547 12.67003631591797 7.474643707275391 9.888545989990234 10.43572235107422 C 7.102897644042969 13.4012336730957 4.915435791015625 16.85551452636719 3.386928558349609 20.70263290405273 C 1.803077697753906 24.68905258178711 0.9999961853027344 28.92481231689453 0.9999961853027344 33.29224395751953 C 0.9999961853027344 37.65967559814453 1.803077697753906 41.89543151855469 3.386928558349609 45.88184356689453 C 4.915435791015625 49.72896575927734 7.102897644042969 53.18324279785156 9.888545989990234 56.14875411987305 C 12.67003631591797 59.10983276367188 15.90742874145508 61.43389511108398 19.51077651977539 63.0563850402832 C 23.23634719848633 64.73390197753906 27.19376754760742 65.58448028564453 31.27310752868652 65.58448028564453 C 35.35244750976562 65.58448028564453 39.30986785888672 64.73390197753906 43.03543853759766 63.0563850402832 C 46.63878631591797 61.43389511108398 49.87617874145508 59.10983276367188 52.65766906738281 56.14875411987305 C 55.44331741333008 53.18324279785156 57.63077545166016 49.72896575927734 59.15928649902344 45.88184356689453 C 60.74313735961914 41.89543151855469 61.54621887207031 37.65967559814453 61.54621887207031 33.29224395751953 C 61.54621887207031 28.92481231689453 60.74313735961914 24.68905258178711 59.15928649902344 20.70263290405273 C 57.63077545166016 16.85552215576172 55.44331741333008 13.4012336730957 52.65766906738281 10.43572235107422 C 49.87617874145508 7.474643707275391 46.63878631591797 5.150585174560547 43.03543853759766 3.528095245361328 C 39.30986785888672 1.850570678710938 35.35244750976562 0.9999923706054688 31.27310752868652 0.9999923706054688 M 31.27310752868652 -7.62939453125e-06 C 48.54475784301758 -7.62939453125e-06 62.54621887207031 14.90544509887695 62.54621887207031 33.29224395751953 C 62.54621887207031 51.67903518676758 48.54475784301758 66.58448028564453 31.27310752868652 66.58448028564453 C 14.00144577026367 66.58448028564453 -3.814697265625e-06 51.67903518676758 -3.814697265625e-06 33.29224395751953 C -3.814697265625e-06 14.90544509887695 14.00144577026367 -7.62939453125e-06 31.27310752868652 -7.62939453125e-06 Z" stroke="none" fill="#bcb0b0"/>
      </g>
      <g id="head" transform="translate(0 0)">
        <g id="head-2" data-name="head" transform="translate(0 7.819)">
          <g id="Elipse_4" data-name="Elipse 4" transform="translate(0.036 40.716)" fill="#ffe8d5" stroke="#bcb0b0" stroke-width="1">
            <circle cx="12.5" cy="12.5" r="12.5" stroke="none"/>
            <circle cx="12.5" cy="12.5" r="12" fill="none"/>
          </g>
          <g id="Elipse_7" data-name="Elipse 7" transform="translate(123.036 40.716)" fill="#ffe8d5" stroke="#bcb0b0" stroke-width="1">
            <circle cx="12.5" cy="12.5" r="12.5" stroke="none"/>
            <circle cx="12.5" cy="12.5" r="12" fill="none"/>
          </g>
          <g id="head-3" data-name="head" transform="translate(15.836)" fill="#ffe8d5">
            <path d="M 58.2326774597168 92.95984649658203 C 50.42609405517578 92.95984649658203 42.85395431518555 91.73325347900391 35.72660064697266 89.31410980224609 C 28.84767723083496 86.97929382324219 22.67126274108887 83.63798522949219 17.36889266967773 79.38300323486328 C 12.074631690979 75.13452911376953 7.919369697570801 70.18980407714844 5.018538951873779 64.68618774414062 C 2.020262002944946 58.99769592285156 0.500000536441803 52.95634078979492 0.500000536441803 46.72992706298828 C 0.500000536441803 40.50351333618164 2.020262002944946 34.462158203125 5.018538951873779 28.77366638183594 C 7.919369697570801 23.27005004882812 12.074631690979 18.32532691955566 17.36889266967773 14.07684993743896 C 22.67126274108887 9.821865081787109 28.84767723083496 6.480557918548584 35.72660064697266 4.145742416381836 C 42.85395431518555 1.726603984832764 50.42609405517578 0.5000039935112 58.2326774597168 0.5000039935112 C 66.03927612304688 0.5000039935112 73.61141967773438 1.726603984832764 80.73876953125 4.145742416381836 C 87.61767578125 6.480557918548584 93.79410552978516 9.821865081787109 99.09645843505859 14.07684993743896 C 104.3907241821289 18.32532691955566 108.5459823608398 23.27005004882812 111.4468154907227 28.77366638183594 C 114.4451065063477 34.462158203125 115.9653549194336 40.50351333618164 115.9653549194336 46.72992706298828 C 115.9653549194336 52.95634078979492 114.4451065063477 58.99769592285156 111.4468154907227 64.68618774414062 C 108.5459823608398 70.18980407714844 104.3907241821289 75.13452911376953 99.09645843505859 79.38300323486328 C 93.79410552978516 83.63798522949219 87.61767578125 86.97929382324219 80.73876953125 89.31410980224609 C 73.61141967773438 91.73325347900391 66.03927612304688 92.95984649658203 58.2326774597168 92.95984649658203 Z" stroke="none"/>
            <path d="M 58.2326774597168 1.000007629394531 C 50.48086547851562 1.000007629394531 42.96278381347656 2.217681884765625 35.88729095458984 4.619216918945312 C 29.06376647949219 6.935218811035156 22.93856811523438 10.24843597412109 17.68183135986328 14.46680450439453 C 12.44130706787109 18.67217254638672 8.329566955566406 23.56412506103516 5.460845947265625 29.00680541992188 C 2.500846862792969 34.6226806640625 1 40.58559036254883 1 46.72992706298828 C 1 52.87424850463867 2.500846862792969 58.83717346191406 5.460845947265625 64.45304870605469 C 8.329566955566406 69.89571380615234 12.44130706787109 74.78768157958984 17.68183135986328 78.99303436279297 C 22.93856811523438 83.21141815185547 29.06376647949219 86.52462005615234 35.88729095458984 88.84063720703125 C 42.96278381347656 91.24217224121094 50.48086547851562 92.45984649658203 58.2326774597168 92.45984649658203 C 65.9844970703125 92.45984649658203 73.50257110595703 91.24217224121094 80.57806396484375 88.84063720703125 C 87.40158081054688 86.52462005615234 93.52678680419922 83.21141815185547 98.78352355957031 78.99303436279297 C 104.0240478515625 74.78768157958984 108.1357879638672 69.89571380615234 111.004508972168 64.45304870605469 C 113.9645080566406 58.83717346191406 115.4653549194336 52.87424850463867 115.4653549194336 46.72992706298828 C 115.4653549194336 40.58559036254883 113.9645080566406 34.6226806640625 111.004508972168 29.00680541992188 C 108.1357879638672 23.56412506103516 104.0240478515625 18.67217254638672 98.78352355957031 14.46680450439453 C 93.52678680419922 10.24843597412109 87.40158081054688 6.935218811035156 80.57806396484375 4.619216918945312 C 73.50257110595703 2.217681884765625 65.9844970703125 1.000007629394531 58.2326774597168 1.000007629394531 M 58.2326774597168 7.62939453125e-06 C 90.39369201660156 7.62939453125e-06 116.4653549194336 20.92169952392578 116.4653549194336 46.72992706298828 C 116.4653549194336 72.53814697265625 90.39369201660156 93.45984649658203 58.2326774597168 93.45984649658203 C 26.07166290283203 93.45984649658203 0 72.53814697265625 0 46.72992706298828 C 0 20.92169952392578 26.07166290283203 7.62939453125e-06 58.2326774597168 7.62939453125e-06 Z" stroke="none" fill="#bcb0b0"/>
          </g>
        </g>
        <path id="Caminho_3" data-name="Caminho 3" d="M15.835,0s-.112,4.066-7.074,5.072S0,2.075,0,2.075" transform="translate(67.367 78.902) rotate(-9)" fill="#ffe8d5" stroke="#bcb0b0" stroke-linecap="round" stroke-width="2"/>
        <g id="Grupo_1" data-name="Grupo 1" transform="translate(44.952 56.346)">
          <path id="Caminho_1" data-name="Caminho 1" d="M0,0S4.912,4.56,10.125,4.74,20.849.719,20.849.719" transform="translate(0 0)" fill="#ffe8d5" stroke="#bcb0b0" stroke-linecap="round" stroke-width="2"/>
          <line id="Linha_1" data-name="Linha 1" y2="5.751" transform="translate(10.784 5.032)" fill="none" stroke="#bcb0b0" stroke-linecap="round" stroke-width="2"/>
          <line id="Linha_2" data-name="Linha 2" x1="2.157" y2="4.314" transform="translate(2.876 3.595)" fill="none" stroke="#bcb0b0" stroke-linecap="round" stroke-width="2"/>
          <line id="Linha_3" data-name="Linha 3" x2="2.157" y2="4.314" transform="translate(17.254 3.595)" fill="none" stroke="#bcb0b0" stroke-linecap="round" stroke-width="2"/>
        </g>
        <g id="Grupo_2" data-name="Grupo 2" transform="translate(81.617 56.346)">
          <path id="Caminho_1-2" data-name="Caminho 1" d="M20.849,0S15.936,4.56,10.724,4.74,0,.719,0,.719" fill="#ffe8d5" stroke="#bcb0b0" stroke-linecap="round" stroke-width="2"/>
          <line id="Linha_1-2" data-name="Linha 1" y2="5.751" transform="translate(10.065 5.032)" fill="none" stroke="#bcb0b0" stroke-linecap="round" stroke-width="2"/>
          <line id="Linha_2-2" data-name="Linha 2" x2="2.157" y2="4.314" transform="translate(15.816 3.595)" fill="none" stroke="#bcb0b0" stroke-linecap="round" stroke-width="2"/>
          <line id="Linha_3-2" data-name="Linha 3" x1="2.157" y2="4.314" transform="translate(1.438 3.595)" fill="none" stroke="#bcb0b0" stroke-linecap="round" stroke-width="2"/>
        </g>
        <ellipse id="Elipse_6" data-name="Elipse 6" cx="11" cy="10.5" rx="11" ry="10.5" transform="translate(89.036 66.535)" opacity="0.638" fill="url(#radial-gradient)"/>
        <ellipse id="Elipse_5" data-name="Elipse 5" cx="11" cy="10.5" rx="11" ry="10.5" transform="translate(40.036 66.535)" opacity="0.585" fill="url(#radial-gradient)"/>
        <path id="Caminho_12" data-name="Caminho 12" d="M3.665-11.455S19.219-8.1,29.143-.423s14.218,19.66,14.218,19.66" transform="translate(81.404 25.712)" fill="none" stroke="#fff2e8" stroke-linecap="round" stroke-width="5"/>
        <path id="Caminho_18" data-name="Caminho 18" d="M2.042-13.092S6.287-13.728,8.7-11.84s3,6.3,3,6.3" transform="translate(132.634 66.118)" fill="none" stroke="#fff2e8" stroke-linecap="round" stroke-width="7" opacity="0.3"/>
        <path id="Caminho_19" data-name="Caminho 19" d="M20.815,29.349S9.064,27.524,8.9,18.868s8.743-9.167,12.7-4.787.968,6.963-3.728,6.895S-2.643,11.48.381,0" transform="translate(55.685 5.274) rotate(-13)" fill="none" stroke="#bcb0b0" stroke-linecap="round" stroke-linejoin="round" stroke-width="2"/>
      </g>
      <g id="arms-right" transform="translate(77.91 84.08)">
        <g id="Caminho_11" data-name="Caminho 11" transform="translate(1.91 9.319)" fill="#ffe8d5">
          <path d="M 14.51810741424561 31.55839729309082 C 10.78316783905029 31.55839729309082 7.268967628479004 29.94943809509277 4.622847557067871 27.02789688110352 C 1.964187383651733 24.0925178527832 0.4999974071979523 20.18643760681152 0.4999974071979523 16.02919769287109 C 0.4999974071979523 11.87195777893066 1.964187383651733 7.965877532958984 4.622847557067871 5.030497550964355 C 7.268967628479004 2.108957767486572 10.78316783905029 0.4999977052211761 14.51810741424561 0.4999977052211761 C 18.25304794311523 0.4999977052211761 21.76724815368652 2.108957767486572 24.41336822509766 5.030497550964355 C 27.0720272064209 7.965877532958984 28.53621673583984 11.87195777893066 28.53621673583984 16.02919769287109 C 28.53621673583984 20.18643760681152 27.0720272064209 24.0925178527832 24.41336822509766 27.02789688110352 C 21.76724815368652 29.94943809509277 18.25304794311523 31.55839729309082 14.51810741424561 31.55839729309082 Z" stroke="none"/>
          <path d="M 14.51810741424561 0.9999980926513672 C 10.92615699768066 0.9999980926513672 7.543567657470703 2.55059814453125 4.993436813354492 5.366147994995117 C 2.418228149414062 8.209386825561523 0.9999980926513672 11.99626731872559 0.9999980926513672 16.02919769287109 C 0.9999980926513672 20.0621280670166 2.418228149414062 23.84900665283203 4.993436813354492 26.69224739074707 C 7.543567657470703 29.50779724121094 10.92615699768066 31.05839729309082 14.51810741424561 31.05839729309082 C 18.11005783081055 31.05839729309082 21.49264717102051 29.50779724121094 24.04277801513672 26.69224739074707 C 26.61798667907715 23.84900665283203 28.03621673583984 20.0621280670166 28.03621673583984 16.02919769287109 C 28.03621673583984 11.99626731872559 26.61798667907715 8.209386825561523 24.04277801513672 5.366147994995117 C 21.49264717102051 2.55059814453125 18.11005783081055 0.9999980926513672 14.51810741424561 0.9999980926513672 M 14.51810741424561 -3.814697265625e-06 C 22.5362377166748 -3.814697265625e-06 29.03621673583984 7.176517486572266 29.03621673583984 16.02919769287109 C 29.03621673583984 24.88187789916992 22.5362377166748 32.05839920043945 14.51810741424561 32.05839920043945 C 6.499977111816406 32.05839920043945 -1.9073486328125e-06 24.88187789916992 -1.9073486328125e-06 16.02919769287109 C -1.9073486328125e-06 7.176517486572266 6.499977111816406 -3.814697265625e-06 14.51810741424561 -3.814697265625e-06 Z" stroke="none" fill="#bcb0b0"/>
        </g>
        <g id="Caminho_10" data-name="Caminho 10" transform="translate(-5.344 1.963)" fill="#ffe8d5">
          <path d="M 14.05725383758545 23.50766181945801 C 10.99647331237793 23.50766181945801 8.861663818359375 22.41161346435547 7.530853748321533 20.15688323974609 C 6.39565372467041 18.23356246948242 5.843813896179199 15.47645282745361 5.843813896179199 11.72800254821777 C 5.843813896179199 8.782362937927246 6.161533832550049 7.206062793731689 7.016103744506836 5.91199254989624 C 7.90704345703125 4.56285285949707 9.412673950195312 3.466692686080933 11.90712356567383 1.650632739067078 C 12.63224411010742 1.122722744941711 13.45411396026611 0.5243726968765259 14.35687351226807 -0.1513772904872894 C 15.51929378509521 -1.021477341651917 16.68170356750488 -1.462657332420349 17.81181335449219 -1.462657332420349 C 18.92077445983887 -1.462657332420349 20.01113319396973 -1.040877342224121 21.05259323120117 -0.2090372890233994 C 22.02643394470215 0.5687927007675171 22.92163276672363 1.668672680854797 23.71332359313965 3.060022592544556 C 25.19317436218262 5.660802841186523 26.11247444152832 8.982172966003418 26.11247444152832 11.72800254821777 C 26.11247444152832 14.87236309051514 24.85991287231445 17.82910346984863 22.58552360534668 20.05357360839844 C 20.30814361572266 22.28098297119141 17.2794132232666 23.50766181945801 14.05725383758545 23.50766181945801 Z" stroke="none"/>
          <path d="M 17.81181335449219 -0.9626579284667969 C 16.7921142578125 -0.9626579284667969 15.73051452636719 -0.5550270080566406 14.65650367736816 0.2489032745361328 C 13.75108337402344 0.9266433715820312 12.92779350280762 1.526021957397461 12.20141410827637 2.054853439331055 C 9.752553939819336 3.837722778320312 8.274433135986328 4.913852691650391 7.433334350585938 6.187522888183594 C 6.639102935791016 7.390222549438477 6.343812942504883 8.891852378845215 6.343812942504883 11.72800254821777 C 6.343812942504883 15.38457298278809 6.872943878173828 18.05854225158691 7.961442947387695 19.90273284912109 C 9.194614410400391 21.99203300476074 11.18857383728027 23.00766372680664 14.05725288391113 23.00766372680664 C 17.1479434967041 23.00766372680664 20.05252456665039 21.83160209655762 22.23591232299805 19.69612312316895 C 24.4133243560791 17.56650352478027 25.61247253417969 14.73670291900635 25.61247253417969 11.72800254821777 C 25.61247253417969 9.063773155212402 24.71824264526367 5.837152481079102 23.27874374389648 3.307302474975586 C 22.52927398681641 1.990142822265625 21.65158462524414 0.9093132019042969 20.74054336547852 0.1816425323486328 C 19.78990364074707 -0.5776576995849609 18.80454254150391 -0.9626579284667969 17.81181335449219 -0.9626579284667969 M 17.81181335449219 -1.962656021118164 C 22.97381591796875 -1.962656021118164 26.61247253417969 6.208212852478027 26.61247253417969 11.72800254821777 C 26.61247253417969 18.50986289978027 20.99131393432617 24.00766372680664 14.05725288391113 24.00766372680664 C 7.123193740844727 24.00766372680664 5.343812942504883 18.50986289978027 5.343812942504883 11.72800254821777 C 5.343812942504883 4.946132659912109 6.99504280090332 4.734612464904785 14.05725288391113 -0.5516567230224609 C 15.37150382995605 -1.53541374206543 16.63153839111328 -1.962656021118164 17.81181335449219 -1.962656021118164 Z" stroke="none" fill="#bcb0b0"/>
        </g>
        <path id="Caminho_13" data-name="Caminho 13" d="M0,0A15.361,15.361,0,0,1,5.238,2.268,9.985,9.985,0,0,1,8.161,6.31" transform="matrix(0.946, 0.326, -0.326, 0.946, 22.319, 14.712)" fill="none" stroke="#fff2e8" stroke-linecap="round" stroke-width="2"/>
        <path id="Caminho_17" data-name="Caminho 17" d="M0,0A15.361,15.361,0,0,1,5.238,2.268" transform="matrix(0.946, 0.326, -0.326, 0.946, 11.554, 2.833)" fill="none" stroke="#fff2e8" stroke-linecap="round" stroke-width="2"/>
      </g>
      <g id="arms-left" transform="translate(58.421 79.342) rotate(47)">
        <g id="Caminho_11-2" data-name="Caminho 11" transform="translate(0 9.319)" fill="#ffe8d5">
          <path d="M 14.51810741424561 31.55839729309082 C 10.78316783905029 31.55839729309082 7.268967628479004 29.94943809509277 4.622847557067871 27.02789688110352 C 1.964187383651733 24.0925178527832 0.4999974071979523 20.18643760681152 0.4999974071979523 16.02919769287109 C 0.4999974071979523 11.87195777893066 1.964187383651733 7.965877532958984 4.622847557067871 5.030497550964355 C 7.268967628479004 2.108957767486572 10.78316783905029 0.4999977052211761 14.51810741424561 0.4999977052211761 C 18.25304794311523 0.4999977052211761 21.76724815368652 2.108957767486572 24.41336822509766 5.030497550964355 C 27.0720272064209 7.965877532958984 28.53621673583984 11.87195777893066 28.53621673583984 16.02919769287109 C 28.53621673583984 20.18643760681152 27.0720272064209 24.0925178527832 24.41336822509766 27.02789688110352 C 21.76724815368652 29.94943809509277 18.25304794311523 31.55839729309082 14.51810741424561 31.55839729309082 Z" stroke="none"/>
          <path d="M 14.51810741424561 0.9999980926513672 C 10.92615699768066 0.9999980926513672 7.543567657470703 2.55059814453125 4.993436813354492 5.366147994995117 C 2.418228149414062 8.209386825561523 0.9999980926513672 11.99626731872559 0.9999980926513672 16.02919769287109 C 0.9999980926513672 20.0621280670166 2.418228149414062 23.84900665283203 4.993436813354492 26.69224739074707 C 7.543567657470703 29.50779724121094 10.92615699768066 31.05839729309082 14.51810741424561 31.05839729309082 C 18.11005783081055 31.05839729309082 21.49264717102051 29.50779724121094 24.04277801513672 26.69224739074707 C 26.61798667907715 23.84900665283203 28.03621673583984 20.0621280670166 28.03621673583984 16.02919769287109 C 28.03621673583984 11.99626731872559 26.61798667907715 8.209386825561523 24.04277801513672 5.366147994995117 C 21.49264717102051 2.55059814453125 18.11005783081055 0.9999980926513672 14.51810741424561 0.9999980926513672 M 14.51810741424561 -3.814697265625e-06 C 22.5362377166748 -3.814697265625e-06 29.03621673583984 7.176517486572266 29.03621673583984 16.02919769287109 C 29.03621673583984 24.88187789916992 22.5362377166748 32.05839920043945 14.51810741424561 32.05839920043945 C 6.499977111816406 32.05839920043945 -1.9073486328125e-06 24.88187789916992 -1.9073486328125e-06 16.02919769287109 C -1.9073486328125e-06 7.176517486572266 6.499977111816406 -3.814697265625e-06 14.51810741424561 -3.814697265625e-06 Z" stroke="none" fill="#bcb0b0"/>
        </g>
        <g id="Caminho_10-2" data-name="Caminho 10" transform="translate(9.677 0)" fill="#ffe8d5">
          <path d="M 12.5552225112915 25.47031784057617 C 9.333063125610352 25.47031784057617 6.304332733154297 24.24363708496094 4.026952743530273 22.01622772216797 C 1.752562642097473 19.79175758361816 0.5000026822090149 16.83501815795898 0.5000026822090149 13.69065761566162 C 0.5000026822090149 10.94482803344727 1.419302701950073 7.623457908630371 2.899162769317627 5.022687911987305 C 3.690852642059326 3.631327867507935 4.586042881011963 2.531457662582397 5.559882640838623 1.753627777099609 C 6.601352691650391 0.9217777848243713 7.691702842712402 0.4999977648258209 8.800662994384766 0.4999977648258209 C 9.930782318115234 0.4999977648258209 11.09318256378174 0.9411777853965759 12.25560283660889 1.811277747154236 C 13.15836238861084 2.487027883529663 13.98023223876953 3.08537769317627 14.70535278320312 3.613287687301636 C 17.19980239868164 5.429347991943359 18.7054328918457 6.525507926940918 19.59637260437012 7.874647617340088 C 20.45094299316406 9.168717384338379 20.76866340637207 10.74501800537109 20.76866340637207 13.69065761566162 C 20.76866340637207 17.43910789489746 20.21682357788086 20.19621849060059 19.08162307739258 22.11953735351562 C 17.75081253051758 24.374267578125 15.61600303649902 25.47031784057617 12.5552225112915 25.47031784057617 Z" stroke="none"/>
          <path d="M 8.800542831420898 0.9999980926513672 C 7.807942390441895 0.9999980926513672 6.822662353515625 1.385007858276367 5.872062683105469 2.144329071044922 C 4.961042404174805 2.872028350830078 4.083353042602539 3.952898025512695 3.333852767944336 5.270088195800781 C 1.894283294677734 7.800058364868164 1.000001907348633 11.0266284942627 1.000001907348633 13.69065856933594 C 1.000001907348633 16.69935989379883 2.199151992797852 19.52915954589844 4.376562118530273 21.65877914428711 C 6.559952735900879 23.79425811767578 9.464532852172852 24.97031784057617 12.5552225112915 24.97031784057617 C 15.42390251159668 24.97031784057617 17.41786193847656 23.95468902587891 18.65103340148926 21.86538887023926 C 19.73953247070312 20.02119827270508 20.26866340637207 17.34722900390625 20.26866340637207 13.69065856933594 C 20.26866340637207 10.85450839996338 19.97337341308594 9.352878570556641 19.17914199829102 8.150178909301758 C 18.33804321289062 6.876508712768555 16.85992240905762 5.800378799438477 14.41106224060059 4.017509460449219 C 13.68468284606934 3.488677978515625 12.86139297485352 2.889299392700195 11.95597267150879 2.211559295654297 C 10.88199234008789 1.407648086547852 9.820383071899414 1.000028610229492 8.800632476806641 0.9999980926513672 L 8.800542831420898 0.9999980926513672 M 8.800663948059082 0 C 9.980937957763672 3.0517578125e-05 11.2409725189209 0.4272422790527344 12.5552225112915 1.410999298095703 C 19.61743354797363 6.697268486022949 21.26866340637207 6.908788681030273 21.26866340637207 13.69065856933594 C 21.26866340637207 20.47251892089844 19.48928260803223 25.97031784057617 12.5552225112915 25.97031784057617 C 5.621162414550781 25.97031784057617 1.9073486328125e-06 20.47251892089844 1.9073486328125e-06 13.69065856933594 C 1.9073486328125e-06 8.170868873596191 3.638660430908203 -0.0001354217529296875 8.800663948059082 0 Z" stroke="none" fill="#bcb0b0"/>
        </g>
      </g>
      <g id="leg-right" transform="translate(74.068 130.738)">
        <g id="Caminho_6" data-name="Caminho 6" transform="translate(0 5.077)" fill="#ffe8d5">
          <path d="M 19.41089248657227 40.1473503112793 C 16.8606128692627 40.1473503112793 14.38666248321533 39.6244010925293 12.05776214599609 38.59304046630859 C 9.806472778320312 37.59605026245117 7.784122467041016 36.16826248168945 6.046902656555176 34.34934234619141 C 4.308132648468018 32.52881240844727 2.942862510681152 30.40849113464355 1.989012479782104 28.04728126525879 C 1.000972509384155 25.60147094726562 0.5000025033950806 23.00287055969238 0.5000025033950806 20.32367134094238 C 0.5000025033950806 17.64447212219238 1.000972509384155 15.0458812713623 1.989012479782104 12.60006141662598 C 2.942862510681152 10.23886108398438 4.308132648468018 8.118541717529297 6.046902656555176 6.298011302947998 C 7.784122467041016 4.479091167449951 9.806472778320312 3.051301240921021 12.05776214599609 2.054311275482178 C 14.38666248321533 1.022951364517212 16.8606128692627 0.5000013113021851 19.41089248657227 0.5000013113021851 C 21.96117210388184 0.5000013113021851 24.43512153625488 1.022951364517212 26.76402282714844 2.054311275482178 C 29.01531219482422 3.051301240921021 31.03766250610352 4.479091167449951 32.77488327026367 6.298011302947998 C 34.51365280151367 8.118541717529297 35.87892150878906 10.23886108398438 36.83277130126953 12.60006141662598 C 37.8208122253418 15.0458812713623 38.32178115844727 17.64447212219238 38.32178115844727 20.32367134094238 C 38.32178115844727 23.00287055969238 37.8208122253418 25.60147094726562 36.83277130126953 28.04728126525879 C 35.87892150878906 30.40849113464355 34.51365280151367 32.52881240844727 32.77488327026367 34.34934234619141 C 31.03766250610352 36.16826248168945 29.01531219482422 37.59605026245117 26.76402282714844 38.59304046630859 C 24.43512153625488 39.6244010925293 21.96117210388184 40.1473503112793 19.41089248657227 40.1473503112793 Z" stroke="none"/>
          <path d="M 19.41089248657227 0.9999923706054688 C 14.50188255310059 0.9999923706054688 9.88420295715332 3.004169464111328 6.408481597900391 6.643341064453125 C 4.713603973388672 8.417922973632812 3.382652282714844 10.48505210876465 2.452613830566406 12.7873420715332 C 1.488731384277344 15.17337226867676 1.000003814697266 17.70895195007324 1.000003814697266 20.32367134094238 C 1.000003814697266 22.93838119506836 1.488731384277344 25.47397232055664 2.452613830566406 27.86000061035156 C 3.382652282714844 30.16228103637695 4.713603973388672 32.22942352294922 6.408481597900391 34.00399017333984 C 9.88420295715332 37.64316177368164 14.50188255310059 39.64734268188477 19.41089248657227 39.64734268188477 C 24.31990242004395 39.64734268188477 28.93758201599121 37.64316177368164 32.41330337524414 34.00399017333984 C 34.10818099975586 32.22942352294922 35.43913269042969 30.16228103637695 36.36917114257812 27.86000061035156 C 37.33305358886719 25.47397232055664 37.82178115844727 22.93838119506836 37.82178115844727 20.32367134094238 C 37.82178115844727 17.70895195007324 37.33305358886719 15.17337226867676 36.36917114257812 12.7873420715332 C 35.43913269042969 10.48505210876465 34.10818099975586 8.417922973632812 32.41330337524414 6.643341064453125 C 28.93758201599121 3.004169464111328 24.31990242004395 0.9999923706054688 19.41089248657227 0.9999923706054688 M 19.41089248657227 -7.62939453125e-06 C 30.13123321533203 -7.62939453125e-06 38.82178115844727 9.099210739135742 38.82178115844727 20.32367134094238 C 38.82178115844727 31.54812240600586 30.13123321533203 40.64734268188477 19.41089248657227 40.64734268188477 C 8.6905517578125 40.64734268188477 3.814697265625e-06 31.54812240600586 3.814697265625e-06 20.32367134094238 C 3.814697265625e-06 9.099210739135742 8.6905517578125 -7.62939453125e-06 19.41089248657227 -7.62939453125e-06 Z" stroke="none" fill="#bcb0b0"/>
        </g>
        <g id="Caminho_8" data-name="Caminho 8" transform="matrix(0.951, 0.309, -0.309, 0.951, 17.13, 0)" fill="#ffe8d5">
          <path d="M 14.99429130554199 40.14735412597656 C 7.002111434936523 40.14735412597656 0.5000013113021851 31.25448608398438 0.5000013113021851 20.32367515563965 C 0.5000013113021851 9.392865180969238 7.002111434936523 0.5000051259994507 14.99429130554199 0.5000051259994507 C 22.98647117614746 0.5000051259994507 29.48858070373535 9.392865180969238 29.48858070373535 20.32367515563965 C 29.48858070373535 31.25448608398438 22.98647117614746 40.14735412597656 14.99429130554199 40.14735412597656 Z" stroke="none"/>
          <path d="M 14.99429130554199 0.9999961853027344 C 7.277811050415039 0.9999961853027344 1.000001907348633 9.66856575012207 1.000001907348633 20.32367515563965 C 1.000001907348633 30.97878646850586 7.277811050415039 39.64734649658203 14.99429130554199 39.64734649658203 C 22.71077156066895 39.64734649658203 28.98858070373535 30.97878646850586 28.98858070373535 20.32367515563965 C 28.98858070373535 9.66856575012207 22.71077156066895 0.9999961853027344 14.99429130554199 0.9999961853027344 M 14.99429130554199 -3.814697265625e-06 C 23.27541160583496 -3.814697265625e-06 29.98858070373535 9.099214553833008 29.98858070373535 20.32367515563965 C 29.98858070373535 31.54812622070312 23.27541160583496 40.64734649658203 14.99429130554199 40.64734649658203 C 6.713171005249023 40.64734649658203 1.9073486328125e-06 31.54812622070312 1.9073486328125e-06 20.32367515563965 C 1.9073486328125e-06 9.099214553833008 6.713171005249023 -3.814697265625e-06 14.99429130554199 -3.814697265625e-06 Z" stroke="none" fill="#bcb0b0"/>
        </g>
        <path id="Caminho_16" data-name="Caminho 16" d="M0,.637A11.627,11.627,0,0,1,11.267,2.723c5.168,4.475,2.883,9.342,2.883,9.342" transform="translate(20.534 9.899) rotate(-13)" fill="none" stroke="#fff2e8" stroke-linecap="round" stroke-width="3"/>
      </g>
      <g id="leg-left" transform="translate(28.314 130.738)">
        <g id="Caminho_7" data-name="Caminho 7" transform="translate(6.933 5.077)" fill="#ffe8d5">
          <path d="M 19.41089248657227 40.1473503112793 C 16.8606128692627 40.1473503112793 14.38666248321533 39.6244010925293 12.05776214599609 38.59304046630859 C 9.806472778320312 37.59605026245117 7.784122467041016 36.16826248168945 6.046902656555176 34.34934234619141 C 4.308132648468018 32.52881240844727 2.942862510681152 30.40849113464355 1.989012479782104 28.04728126525879 C 1.000972509384155 25.60147094726562 0.5000025033950806 23.00287055969238 0.5000025033950806 20.32367134094238 C 0.5000025033950806 17.64447212219238 1.000972509384155 15.0458812713623 1.989012479782104 12.60006141662598 C 2.942862510681152 10.23886108398438 4.308132648468018 8.118541717529297 6.046902656555176 6.298011302947998 C 7.784122467041016 4.479091167449951 9.806472778320312 3.051301240921021 12.05776214599609 2.054311275482178 C 14.38666248321533 1.022951364517212 16.8606128692627 0.5000013113021851 19.41089248657227 0.5000013113021851 C 21.96117210388184 0.5000013113021851 24.43512153625488 1.022951364517212 26.76402282714844 2.054311275482178 C 29.01531219482422 3.051301240921021 31.03766250610352 4.479091167449951 32.77488327026367 6.298011302947998 C 34.51365280151367 8.118541717529297 35.87892150878906 10.23886108398438 36.83277130126953 12.60006141662598 C 37.8208122253418 15.0458812713623 38.32178115844727 17.64447212219238 38.32178115844727 20.32367134094238 C 38.32178115844727 23.00287055969238 37.8208122253418 25.60147094726562 36.83277130126953 28.04728126525879 C 35.87892150878906 30.40849113464355 34.51365280151367 32.52881240844727 32.77488327026367 34.34934234619141 C 31.03766250610352 36.16826248168945 29.01531219482422 37.59605026245117 26.76402282714844 38.59304046630859 C 24.43512153625488 39.6244010925293 21.96117210388184 40.1473503112793 19.41089248657227 40.1473503112793 Z" stroke="none"/>
          <path d="M 19.41089248657227 0.9999923706054688 C 14.50188255310059 0.9999923706054688 9.88420295715332 3.004169464111328 6.408481597900391 6.643341064453125 C 4.713603973388672 8.417922973632812 3.382652282714844 10.48505210876465 2.452613830566406 12.7873420715332 C 1.488731384277344 15.17337226867676 1.000003814697266 17.70895195007324 1.000003814697266 20.32367134094238 C 1.000003814697266 22.93838119506836 1.488731384277344 25.47397232055664 2.452613830566406 27.86000061035156 C 3.382652282714844 30.16228103637695 4.713603973388672 32.22942352294922 6.408481597900391 34.00399017333984 C 9.88420295715332 37.64316177368164 14.50188255310059 39.64734268188477 19.41089248657227 39.64734268188477 C 24.31990242004395 39.64734268188477 28.93758201599121 37.64316177368164 32.41330337524414 34.00399017333984 C 34.10818099975586 32.22942352294922 35.43913269042969 30.16228103637695 36.36917114257812 27.86000061035156 C 37.33305358886719 25.47397232055664 37.82178115844727 22.93838119506836 37.82178115844727 20.32367134094238 C 37.82178115844727 17.70895195007324 37.33305358886719 15.17337226867676 36.36917114257812 12.7873420715332 C 35.43913269042969 10.48505210876465 34.10818099975586 8.417922973632812 32.41330337524414 6.643341064453125 C 28.93758201599121 3.004169464111328 24.31990242004395 0.9999923706054688 19.41089248657227 0.9999923706054688 M 19.41089248657227 -7.62939453125e-06 C 30.13123321533203 -7.62939453125e-06 38.82178115844727 9.099210739135742 38.82178115844727 20.32367134094238 C 38.82178115844727 31.54812240600586 30.13123321533203 40.64734268188477 19.41089248657227 40.64734268188477 C 8.6905517578125 40.64734268188477 3.814697265625e-06 31.54812240600586 3.814697265625e-06 20.32367134094238 C 3.814697265625e-06 9.099210739135742 8.6905517578125 -7.62939453125e-06 19.41089248657227 -7.62939453125e-06 Z" stroke="none" fill="#bcb0b0"/>
        </g>
        <g id="Caminho_9" data-name="Caminho 9" transform="matrix(-0.951, 0.309, -0.309, -0.951, 41.082, 38.658)" fill="#ffe8d5">
          <path d="M 14.99430656433105 40.14734268188477 C 7.002127170562744 40.14734268188477 0.5000070333480835 31.25448226928711 0.4999970197677612 20.32367134094238 C 0.4999970197677612 9.392861366271973 7.0021071434021 0.5000013113021851 14.99428749084473 0.5000013113021851 C 22.98647689819336 0.5000013113021851 29.48859786987305 9.392861366271973 29.48859786987305 20.32367134094238 C 29.48859786987305 31.25448226928711 22.98648643493652 40.14734268188477 14.99430656433105 40.14734268188477 Z" stroke="none"/>
          <path d="M 14.99430656433105 39.64734268188477 C 22.71078681945801 39.64734268188477 28.98859786987305 30.97878074645996 28.98859786987305 20.32367134094238 C 28.98859786987305 9.668560981750488 22.71077728271484 1.000001311302185 14.99428749084473 1.000001311302185 C 7.277807235717773 1.000001311302185 0.9999970197677612 9.668560981750488 0.9999970197677612 20.32367134094238 C 1.000007033348083 30.97878074645996 7.277827262878418 39.64734268188477 14.99430656433105 39.64734268188477 M 14.99430656433105 40.64734268188477 C 6.713187217712402 40.64734268188477 7.027587798802415e-06 31.54812049865723 -2.972412175950012e-06 20.32367134094238 C -2.972412175950012e-06 9.099221229553223 6.713167190551758 1.340942390015698e-06 14.99428749084473 1.340942390015698e-06 C 23.27541732788086 1.340942390015698e-06 29.98859786987305 9.099231719970703 29.98859786987305 20.32367134094238 C 29.98859786987305 31.54813194274902 23.27542686462402 40.64734268188477 14.99430656433105 40.64734268188477 Z" stroke="none" fill="#bcb0b0"/>
        </g>
      </g>
    </g>
    <g id="bubble" transform="translate(652.924 3.826)">
      <ellipse id="Elipse_8" data-name="Elipse 8" cx="4.5" cy="4" rx="4.5" ry="4" transform="translate(147.877 107.197)" fill="#fff"/>
      <circle id="Elipse_16" data-name="Elipse 16" cx="4" cy="4" r="4" transform="translate(22.877 46.197)" fill="#fff"/>
      <ellipse id="Elipse_17" data-name="Elipse 17" cx="4.5" cy="4" rx="4.5" ry="4" transform="translate(48.877 125.197)" fill="#fff"/>
      <circle id="Elipse_9" data-name="Elipse 9" cx="2" cy="2" r="2" transform="translate(34.877 95.197)" fill="#fff"/>
      <ellipse id="Elipse_27" data-name="Elipse 27" cx="2" cy="2.5" rx="2" ry="2.5" transform="translate(-0.123 110.197)" fill="#fff"/>
      <circle id="Elipse_10" data-name="Elipse 10" cx="2" cy="2" r="2" transform="translate(170.877 86.197)" fill="#fff"/>
      <ellipse id="Elipse_30" data-name="Elipse 30" cx="2.5" cy="2" rx="2.5" ry="2" transform="translate(136.877 17.197)" fill="#fff"/>
      <circle id="Elipse_11" data-name="Elipse 11" cx="2" cy="2" r="2" transform="translate(40.877 36.197)" fill="#fff"/>
      <circle id="Elipse_29" data-name="Elipse 29" cx="2" cy="2" r="2" transform="translate(85.877 4.197)" fill="#fff"/>
      <circle id="Elipse_12" data-name="Elipse 12" cx="2" cy="2" r="2" transform="translate(24.877 129.197)" fill="#fff"/>
      <circle id="Elipse_13" data-name="Elipse 13" cx="2" cy="2" r="2" transform="translate(157.877 36.197)" fill="#fff"/>
      <ellipse id="Elipse_19" data-name="Elipse 19" cx="2.5" cy="2" rx="2.5" ry="2" transform="translate(136.877 103.197)" fill="#fff"/>
      <circle id="Elipse_20" data-name="Elipse 20" cx="2" cy="2" r="2" transform="translate(141.877 121.197)" fill="#fff"/>
      <circle id="Elipse_21" data-name="Elipse 21" cx="1.5" cy="1.5" r="1.5" transform="translate(149.877 162.197)" fill="#fff"/>
      <ellipse id="Elipse_22" data-name="Elipse 22" cx="1" cy="1.5" rx="1" ry="1.5" transform="translate(156.877 96.197)" fill="#fff"/>
      <circle id="Elipse_31" data-name="Elipse 31" cx="1.5" cy="1.5" r="1.5" transform="translate(147.877 16.197)" fill="#fff"/>
      <circle id="Elipse_24" data-name="Elipse 24" cx="1.5" cy="1.5" r="1.5" transform="translate(175.877 124.197)" fill="#fff"/>
      <ellipse id="Elipse_25" data-name="Elipse 25" cx="1.5" cy="1" rx="1.5" ry="1" transform="translate(51.877 110.197)" fill="#fff"/>
      <ellipse id="Elipse_26" data-name="Elipse 26" cx="1" cy="1.5" rx="1" ry="1.5" transform="translate(10.877 73.197)" fill="#fff"/>
      <ellipse id="Elipse_23" data-name="Elipse 23" cx="1.5" cy="1" rx="1.5" ry="1" transform="translate(180.877 76.197)" fill="#fff"/>
      <circle id="Elipse_14" data-name="Elipse 14" cx="5" cy="5" r="5" transform="translate(147.877 133.197)" fill="#fff"/>
      <circle id="Elipse_15" data-name="Elipse 15" cx="4" cy="4" r="4" transform="translate(11.877 101.197)" fill="#fff"/>
      <circle id="Elipse_28" data-name="Elipse 28" cx="3.5" cy="3.5" r="3.5" transform="translate(56.877 11.197)" fill="#fff"/>
      <circle id="Elipse_18" data-name="Elipse 18" cx="4" cy="4" r="4" transform="translate(107.877 0.197)" fill="#fff"/>
    </g>
  </g>
</svg>
