<svg xmlns="http://www.w3.org/2000/svg" width="87.073" height="152.623" viewBox="0 0 87.073 152.623">
  <path id="westminster" d="M415.844,296.965a2.706,2.706,0,1,0,2.714,2.7A2.7,2.7,0,0,0,415.844,296.965Zm15.183,89.914V307.252h-1.765V255.233h-.545c.111-.665.133-1.353-.15-1.614a1.8,1.8,0,0,1-.635-1.615c0-.546-.307-2.437-.307-2.437l-.726-.822-.641-5.952-.727-.814h-.2l-.724.814-.637,5.952-.724.822s-.315,1.892-.315,2.437a1.816,1.816,0,0,1-.626,1.615c-.292.254-.262.949-.159,1.614H409.564c.1-.665.134-1.353-.166-1.614a1.825,1.825,0,0,1-.62-1.615c0-.546-.313-2.437-.313-2.437l-.739-.822-.622-5.952-.731-.814h-.209l-.712.814-.637,5.952-.724.822s-.315,1.892-.315,2.437a1.793,1.793,0,0,1-.641,1.615c-.292.254-.255.949-.157,1.614h-.524v47.623h-.724l-10.3-15v-3.836h1.967v-.875h-1.967v-1.869h-.86v1.869h-1.974v.875h1.974v3.836l-10.3,15H379.5V255.233h-.538c.113-.665.135-1.353-.156-1.614A1.812,1.812,0,0,1,378.18,252c0-.546-.313-2.437-.313-2.437l-.739-.822-.628-5.952-.726-.814h-.195l-.733.814-.634,5.952-.733.822s-.315,1.892-.315,2.437a1.812,1.812,0,0,1-.628,1.615c-.292.254-.269.949-.149,1.614H359.8c.1-.665.142-1.353-.15-1.614a1.8,1.8,0,0,1-.635-1.615c0-.546-.306-2.437-.306-2.437l-.742-.822-.627-5.952-.718-.814h-.2l-.733.814-.627,5.952-.734.822s-.313,1.892-.313,2.437a1.811,1.811,0,0,1-.629,1.615c-.307.254-.268.949-.149,1.614h-.546v52.019H351.28v79.627h-3.386V394.6h87.073v-7.723Zm-61-57.865h-8.8v-6.608s1.472-5.017,4.4-5.017,4.4,5.017,4.4,5.017Zm-3.932-22.884a6.463,6.463,0,1,1,6.46-6.467A6.458,6.458,0,0,1,366.091,306.131Zm17.853,48.922h-2.213V327.415a23.574,23.574,0,0,1,2.213-4.6Zm2.436-35.227a7.477,7.477,0,0,1,3.462-1.853v37.08H386.38Zm8.373,68.535h-8.134v-11.5s1.345-4.181,4.053-4.181,4.081,4.181,4.081,4.181Zm.98-33.308h-3.462v-37.08a7.485,7.485,0,0,1,3.462,1.853Zm4.641,0h-2.211V322.81a23.074,23.074,0,0,1,2.211,4.6Zm20.986-26.039h-8.792v-6.608s1.459-5.017,4.4-5.017,4.4,5.017,4.4,5.017Zm-5.517-22.884a6.463,6.463,0,1,1,6.474-6.467A6.465,6.465,0,0,1,415.844,306.131Z" transform="translate(-347.894 -241.979)" fill="#2d5246"/>
</svg>
